<svg width="200" height="61" viewBox="0 0 200 61" fill="none" xmlns="http://www.w3.org/2000/svg">
<g clip-path="url(#clip0_6287_23)">
<path d="M48.3112 12.9177C45.3922 6.74803 40.7855 2.38018 33.9817 0.623493C30.6806 -0.23097 27.6581 0.63676 25.3548 2.80741C22.5637 5.48776 19.1423 7.42162 15.4064 8.43042C11.7816 9.41491 8.29471 10.5878 5.24837 12.9256C-1.1203 17.8109 -1.82881 27.4303 3.82073 32.772C6.19196 35.0458 8.86006 36.9882 11.7524 38.5462C15.2657 40.4038 17.7442 43.1927 20.3739 45.9604C22.1121 47.7861 23.8236 49.6994 26.4295 50.4503C30.0756 51.5118 33.4456 50.7157 36.821 49.2907C40.1964 47.8657 43.1525 45.8702 45.4081 43.0255C49.3408 38.0633 50.9807 32.2678 51.1213 26.0026C51.1916 21.4841 50.2305 17.009 48.3112 12.9177ZM27.1964 43.0547C18.3201 43.007 11.8346 36.3491 11.6489 27.7514C11.4578 18.9387 18.5775 11.9916 27.1964 11.9146C35.7145 11.8509 42.9933 18.9759 42.8261 27.486C42.7386 35.8741 36.2425 43.1051 27.1964 43.0547Z" fill="white"/>
<path d="M58.3848 24.2671V7.61035H60.4546V24.2671H58.3848Z" fill="white"/>
<path d="M63.5518 24.2672V11.514H65.3854V12.6311C65.8817 12.3521 66.3938 12.1023 66.9192 11.8828C67.3924 11.6868 67.8828 11.5349 68.384 11.4291C68.9002 11.3248 69.4256 11.2732 69.9523 11.2751C70.6263 11.2535 71.2958 11.3926 71.9053 11.6811C72.4176 11.9389 72.8368 12.3498 73.1048 12.8567C73.3989 13.4429 73.5421 14.0932 73.5214 14.7487V24.2672H71.4993V15.3192C71.4993 14.5603 71.3091 13.9774 70.9288 13.5705C70.5493 13.1672 69.9602 12.9655 69.1695 12.9655C68.7529 12.9637 68.3374 13.0073 67.9302 13.0955C67.521 13.1849 67.1212 13.3129 66.7361 13.4776C66.3487 13.6422 65.9559 13.8306 65.5605 14.0349V24.2672H63.5518Z" fill="white"/>
<path d="M79.7383 24.2672L75.0732 11.5856L77.1431 11.4185L80.9271 22.2983L84.544 11.4185L86.5899 11.5856L81.9275 24.2672H79.7383Z" fill="white"/>
<path d="M92.7889 24.5033C91.9969 24.5168 91.2084 24.3966 90.4564 24.1477C89.7978 23.924 89.2051 23.5401 88.7316 23.0305C88.2332 22.4658 87.8638 21.7993 87.6489 21.0775C87.3775 20.1506 87.2495 19.1877 87.2694 18.2222C87.2432 17.1134 87.4001 16.008 87.7338 14.9503C87.9862 14.1493 88.413 13.4143 88.9836 12.7982C89.4976 12.263 90.1356 11.8629 90.8412 11.6333C91.583 11.3914 92.3589 11.2704 93.1392 11.275C94.7721 11.275 95.9856 11.7076 96.78 12.5726C97.5743 13.4377 97.9732 14.8362 97.9767 16.768C97.9767 16.8635 97.9767 17.0042 97.9635 17.1846C97.9502 17.3651 97.9635 17.5296 97.9635 17.6729C97.6291 17.7047 97.1674 17.7419 96.6075 17.779L94.6332 17.9223C93.8884 17.9772 93.0711 18.017 92.1813 18.0417C91.2923 18.0656 90.3582 18.0868 89.3737 18.1028C89.3575 18.1849 89.3495 18.2685 89.3498 18.3522V18.6017C89.3157 19.4525 89.4659 20.3007 89.7903 21.0881C90.0459 21.676 90.4955 22.1584 91.0641 22.4547C91.7098 22.7612 92.4195 22.9086 93.1339 22.8846C93.6466 22.8842 94.1589 22.8523 94.6677 22.789C95.1825 22.7254 95.692 22.6511 96.1909 22.5635C96.6897 22.4759 97.1382 22.383 97.5336 22.2981L97.7989 23.7974C97.328 23.9505 96.8475 24.0728 96.3607 24.1636C95.83 24.268 95.2665 24.3564 94.6703 24.429C94.0449 24.486 93.4169 24.5108 92.7889 24.5033ZM89.387 16.7468C90.1486 16.7468 90.881 16.7468 91.5868 16.699L93.5266 16.6167C94.114 16.5937 94.6173 16.5663 95.0365 16.5345C95.4585 16.5026 95.7636 16.4708 95.9547 16.439C95.9624 15.7176 95.8494 15.0001 95.6203 14.3161C95.452 13.8172 95.1102 13.3953 94.6571 13.1272C94.155 12.8655 93.5936 12.7384 93.0277 12.7584C92.617 12.7576 92.2083 12.8175 91.8151 12.9362C91.4094 13.0608 91.0355 13.2717 90.7191 13.5545C90.3514 13.8974 90.0563 14.3107 89.8514 14.7698C89.5787 15.3954 89.4213 16.0652 89.387 16.7468Z" fill="white"/>
<path d="M99.375 23.7444L99.6828 22.2451C99.9685 22.3664 100.263 22.4658 100.564 22.5423C100.898 22.6299 101.251 22.7042 101.625 22.7679C101.999 22.8313 102.377 22.8747 102.756 22.8979C103.138 22.9218 103.501 22.935 103.852 22.935C104.833 22.935 105.584 22.7705 106.099 22.4468C106.465 22.196 106.723 21.8179 106.824 21.3864C106.926 20.9549 106.862 20.5012 106.646 20.1142C106.479 19.8534 106.255 19.6339 105.99 19.4721C105.656 19.2671 105.3 19.0998 104.929 18.9732C104.502 18.8219 103.992 18.668 103.406 18.5088C102.896 18.3907 102.398 18.2237 101.92 18.0099C101.494 17.8211 101.101 17.5678 100.752 17.259C100.435 16.9762 100.183 16.6275 100.015 16.2373C99.8424 15.81 99.7576 15.3526 99.7651 14.8919C99.7651 13.7509 100.166 12.8664 100.967 12.2383C101.769 11.6103 102.955 11.2928 104.526 11.2857C104.979 11.2845 105.431 11.3085 105.882 11.3573C106.294 11.4024 106.702 11.4742 107.105 11.5723C107.456 11.6567 107.802 11.7595 108.143 11.8801L107.856 13.4033C107.538 13.3077 107.214 13.2228 106.879 13.1379C106.519 13.0534 106.154 12.9896 105.786 12.9468C105.36 12.8974 104.931 12.8735 104.502 12.8752C103.58 12.8752 102.878 13.0415 102.395 13.3741C102.168 13.5189 101.982 13.7197 101.855 13.9572C101.728 14.1947 101.665 14.4609 101.67 14.7301C101.658 15.0376 101.74 15.3415 101.907 15.6005C102.083 15.8457 102.316 16.0449 102.586 16.1816C102.914 16.3557 103.256 16.503 103.608 16.6221C103.997 16.7565 104.421 16.8875 104.881 17.0148C105.5 17.1917 106.048 17.374 106.524 17.5615C106.969 17.7361 107.386 17.9767 107.76 18.2753C108.107 18.5598 108.38 18.924 108.556 19.3367C108.748 19.8126 108.839 20.3232 108.822 20.836C108.829 21.3014 108.753 21.7643 108.596 22.2026C108.453 22.5981 108.216 22.9531 107.906 23.2375C107.592 23.5294 107.234 23.7702 106.845 23.9514C106.409 24.1521 105.948 24.2965 105.476 24.3813C104.935 24.4789 104.386 24.526 103.836 24.5219C103.298 24.5216 102.761 24.4906 102.228 24.429C101.697 24.3653 101.19 24.2769 100.707 24.1637C100.25 24.0706 99.8033 23.9301 99.375 23.7444Z" fill="white"/>
<path d="M115.061 24.5036C114.391 24.525 113.727 24.3742 113.132 24.0657C112.603 23.765 112.196 23.2892 111.98 22.7204C111.715 22.0134 111.59 21.2619 111.611 20.5072V13.0135H109.422V11.7052L111.611 11.5142L111.876 8.4917H113.615V11.5142H117.874V12.9896H113.609V20.364C113.609 21.2202 113.771 21.8394 114.095 22.2215C114.419 22.6036 114.955 22.7982 115.703 22.8053C116.083 22.8052 116.462 22.7652 116.833 22.6859C117.222 22.6017 117.607 22.4981 117.985 22.3754L118.272 23.9225C117.724 24.1232 117.158 24.2708 116.581 24.3629C116.079 24.4493 115.571 24.4963 115.061 24.5036Z" fill="white"/>
<path d="M120.936 8.94265C120.608 8.97135 120.281 8.88808 120.007 8.70648C119.902 8.59659 119.822 8.46512 119.773 8.32121C119.724 8.1773 119.707 8.02443 119.723 7.87325C119.704 7.71975 119.718 7.56407 119.764 7.41637C119.81 7.26867 119.886 7.13228 119.988 7.01613C120.279 6.86095 120.604 6.77979 120.934 6.77979C121.264 6.77979 121.589 6.86095 121.88 7.01613C121.98 7.13366 122.055 7.2702 122.101 7.41752C122.146 7.56483 122.162 7.71986 122.146 7.87325C122.161 8.0229 122.145 8.17403 122.099 8.31734C122.053 8.46064 121.979 8.59308 121.88 8.70648C121.713 8.8657 121.4 8.94265 120.936 8.94265ZM119.938 24.2673V11.514H121.931V24.2673H119.938Z" fill="white"/>
<path d="M124.911 24.2672V11.5139H126.742V12.6311C127.17 12.371 127.613 12.137 128.069 11.9305C128.51 11.7328 128.968 11.5773 129.438 11.4662C129.917 11.3534 130.408 11.2972 130.9 11.299C131.324 11.2923 131.745 11.3523 132.15 11.4768C132.489 11.5872 132.804 11.762 133.076 11.9916C133.331 12.2061 133.541 12.4684 133.695 12.7638C134.11 12.4929 134.544 12.2508 134.992 12.0393C135.47 11.8172 135.968 11.6395 136.478 11.5086C137.038 11.3628 137.614 11.2905 138.192 11.2937C138.623 11.2857 139.052 11.3457 139.464 11.4715C140.131 11.6864 140.692 12.1463 141.034 12.7585C141.205 13.0583 141.326 13.3836 141.393 13.7217C141.464 14.0711 141.499 14.4267 141.499 14.7832V24.2778H139.501V15.3431C139.502 15.0555 139.47 14.7688 139.405 14.4886C139.343 14.2213 139.234 13.9671 139.084 13.7376C138.918 13.4961 138.687 13.3066 138.418 13.191C138.076 13.0469 137.707 12.9781 137.335 12.9893C136.918 12.9875 136.503 13.0392 136.099 13.1432C135.719 13.2399 135.348 13.3714 134.992 13.536C134.67 13.6838 134.356 13.8504 134.053 14.0349C134.129 14.2341 134.18 14.4416 134.207 14.6531C134.229 14.8434 134.241 15.0348 134.241 15.2263V24.2672H132.219V15.3431C132.219 15.0677 132.191 14.7931 132.137 14.5231C132.085 14.2552 131.979 14.0007 131.826 13.7748C131.658 13.5353 131.428 13.3456 131.16 13.2255C130.82 13.0745 130.45 13.0019 130.078 13.0132C129.712 13.0139 129.348 13.0611 128.995 13.1539C128.641 13.2497 128.295 13.373 127.96 13.5227C127.628 13.674 127.286 13.8464 126.938 14.0349V24.2672H124.911Z" fill="white"/>
<path d="M149.369 24.5033C148.577 24.5168 147.788 24.3966 147.036 24.1477C146.378 23.9246 145.785 23.5406 145.312 23.0305C144.813 22.4658 144.444 21.7993 144.229 21.0775C143.958 20.1506 143.83 19.1877 143.849 18.2222C143.823 17.1134 143.98 16.008 144.314 14.9503C144.566 14.15 144.992 13.4152 145.561 12.7982C146.076 12.2642 146.714 11.8643 147.419 11.6333C148.16 11.3914 148.936 11.2704 149.717 11.275C151.348 11.275 152.56 11.7076 153.355 12.5726C154.149 13.4377 154.554 14.8362 154.57 16.768C154.57 16.8635 154.57 17.0042 154.557 17.1846C154.544 17.3651 154.557 17.5296 154.557 17.6729C154.222 17.7047 153.761 17.7419 153.201 17.779L151.224 17.9223C150.478 17.9781 149.664 18.0179 148.775 18.0417C147.886 18.0656 146.949 18.0868 145.967 18.1028C145.951 18.1849 145.943 18.2685 145.943 18.3522V18.6017C145.909 19.4525 146.059 20.3007 146.384 21.0881C146.639 21.6752 147.088 22.1574 147.655 22.4547C148.301 22.7606 149.01 22.908 149.725 22.8846C150.238 22.8843 150.751 22.8524 151.261 22.789C151.776 22.7254 152.284 22.6502 152.784 22.5635C153.283 22.4759 153.732 22.383 154.127 22.2981L154.392 23.7974C153.921 23.9505 153.441 24.0728 152.954 24.1636C152.423 24.268 151.86 24.3564 151.264 24.429C150.634 24.4865 150.001 24.5113 149.369 24.5033ZM145.967 16.7468C146.729 16.7468 147.461 16.7468 148.167 16.699L150.107 16.6167C150.694 16.5937 151.197 16.5663 151.617 16.5345C152.039 16.5026 152.344 16.4708 152.535 16.439C152.541 15.7177 152.428 15.0004 152.2 14.3161C152.032 13.8172 151.69 13.3953 151.237 13.1272C150.735 12.8655 150.174 12.7384 149.608 12.7584C149.196 12.7578 148.787 12.8177 148.392 12.9362C147.987 13.0605 147.614 13.2715 147.299 13.5545C146.931 13.8967 146.635 14.3102 146.431 14.7698C146.159 15.3954 146.001 16.0652 145.967 16.7468Z" fill="white"/>
<path d="M156.839 24.2672V11.514H158.673V12.6311C159.169 12.3521 159.681 12.1023 160.206 11.8828C160.68 11.6868 161.17 11.5349 161.671 11.4291C162.187 11.3248 162.713 11.2732 163.239 11.2751C163.913 11.2535 164.583 11.3926 165.192 11.6811C165.705 11.9389 166.124 12.3498 166.392 12.8567C166.686 13.4429 166.829 14.0932 166.808 14.7487V24.2672H164.786V15.3192C164.786 14.5603 164.596 13.9774 164.216 13.5705C163.836 13.1672 163.247 12.9655 162.454 12.9655C162.038 12.9639 161.624 13.0075 161.217 13.0955C160.814 13.1859 160.419 13.3138 160.039 13.4776C159.652 13.6422 159.259 13.8306 158.861 14.0349V24.2672H156.839Z" fill="white"/>
<path d="M174.114 24.5036C173.445 24.5253 172.782 24.3745 172.187 24.0657C171.657 23.7658 171.249 23.2898 171.033 22.7204C170.768 22.0134 170.643 21.2619 170.664 20.5072V13.0135H168.475V11.7052L170.664 11.5142L170.93 8.4917H172.668V11.5142H176.927V12.9896H172.662V20.364C172.662 21.2202 172.825 21.8394 173.151 22.2215C173.476 22.6036 174.011 22.7982 174.756 22.8053C175.136 22.8054 175.515 22.7653 175.887 22.6859C176.258 22.6063 176.643 22.5028 177.041 22.3754L177.325 23.9225C176.778 24.1229 176.213 24.2704 175.637 24.3629C175.134 24.4492 174.625 24.4962 174.114 24.5036Z" fill="white"/>
<path d="M178.063 17.8669C178.047 16.8734 178.147 15.8814 178.36 14.9108C178.519 14.1708 178.841 13.4755 179.302 12.8755C179.753 12.3275 180.344 11.9128 181.013 11.676C182.733 11.1347 184.577 11.1347 186.297 11.676C186.968 11.9154 187.563 12.3295 188.022 12.8755C188.489 13.473 188.813 14.169 188.972 14.9108C189.186 15.8793 189.287 16.8697 189.271 17.8616C189.288 18.8663 189.179 19.8692 188.948 20.8469C188.775 21.5981 188.438 22.3015 187.961 22.9061C187.504 23.4542 186.908 23.8686 186.236 24.1056C185.405 24.3879 184.531 24.5208 183.654 24.4983C182.785 24.5196 181.92 24.3866 181.098 24.1056C180.426 23.8686 179.83 23.4542 179.373 22.9061C178.896 22.3011 178.558 21.5979 178.384 20.8469C178.155 19.8705 178.047 18.8697 178.063 17.8669ZM180.109 17.8669C180.078 18.8794 180.202 19.8907 180.477 20.8655C180.659 21.521 181.068 22.0904 181.632 22.4709C182.247 22.8185 182.947 22.9875 183.654 22.9592C184.369 22.9897 185.078 22.8206 185.702 22.4709C186.266 22.0909 186.675 21.5213 186.854 20.8655C187.131 19.8909 187.255 18.8795 187.223 17.8669C187.253 16.8682 187.137 15.8705 186.878 14.9055C186.711 14.2566 186.314 13.6905 185.761 13.3133C185.107 12.992 184.389 12.8249 183.66 12.8249C182.932 12.8249 182.214 12.992 181.56 13.3133C181.003 13.6865 180.604 14.2542 180.443 14.9055C180.192 15.8719 180.08 16.8689 180.109 17.8669Z" fill="white"/>
<path d="M190.556 23.7443L190.863 22.245C191.149 22.3663 191.444 22.4657 191.744 22.5422C192.076 22.6298 192.429 22.7041 192.806 22.7677C193.18 22.8313 193.557 22.8747 193.936 22.8978C194.316 22.9217 194.682 22.9349 195.03 22.9349C196.014 22.9349 196.762 22.7704 197.28 22.4467C197.645 22.1959 197.904 21.8178 198.005 21.3863C198.106 20.9548 198.043 20.5011 197.827 20.1141C197.659 19.8533 197.435 19.6338 197.171 19.472C196.837 19.267 196.481 19.0996 196.11 18.9731C195.68 18.8227 195.172 18.6679 194.586 18.5087C194.076 18.3906 193.579 18.2235 193.1 18.0098C192.675 17.821 192.281 17.5677 191.933 17.2588C191.614 16.9766 191.36 16.6279 191.19 16.2372C191.018 15.8099 190.933 15.3524 190.94 14.8918C190.94 13.7508 191.341 12.8662 192.143 12.2382C192.944 11.6102 194.13 11.2891 195.701 11.275C196.154 11.2737 196.607 11.2976 197.057 11.3466C197.47 11.3914 197.879 11.4632 198.283 11.5615C198.633 11.6456 198.979 11.7483 199.318 11.8694L199.034 13.3925C198.716 13.297 198.392 13.2121 198.057 13.1272C197.697 13.0427 197.332 12.9789 196.964 12.9361C196.537 12.8866 196.107 12.8627 195.677 12.8645C194.759 12.8645 194.056 13.0316 193.573 13.3633C193.345 13.5075 193.158 13.7081 193.031 13.9457C192.903 14.1833 192.84 14.4498 192.846 14.7193C192.834 15.0271 192.917 15.3311 193.085 15.5897C193.261 15.8349 193.494 16.0342 193.764 16.1709C194.092 16.345 194.434 16.4923 194.786 16.6114C195.176 16.7467 195.598 16.8767 196.059 17.0041C196.677 17.181 197.224 17.3632 197.702 17.5507C198.147 17.7254 198.564 17.966 198.938 18.2646C199.285 18.5499 199.557 18.9138 199.735 19.326C199.926 19.8018 200.017 20.3125 200 20.8253C200.007 21.2907 199.931 21.7536 199.774 22.1919C199.631 22.5874 199.394 22.9424 199.084 23.2268C198.769 23.518 198.411 23.7588 198.023 23.9406C197.587 24.1413 197.126 24.2858 196.654 24.3705C196.112 24.4681 195.562 24.5152 195.011 24.5112C194.479 24.5103 193.947 24.4793 193.419 24.4183C192.888 24.3546 192.38 24.2661 191.896 24.1529C191.436 24.0636 190.987 23.9266 190.556 23.7443Z" fill="white"/>
<path d="M58.3848 47.9532V31.2726C59.3507 31.2124 60.1751 31.1656 60.8579 31.132C61.5399 31.1001 62.121 31.0789 62.596 31.0709C63.071 31.063 63.4532 31.0709 63.7371 31.0709C64.8584 31.051 65.9788 31.1461 67.0806 31.3549C67.8398 31.4917 68.5546 31.8104 69.1637 32.2836C69.6807 32.7281 70.0462 33.3227 70.2093 33.9846C70.4149 34.8132 70.5112 35.6652 70.4959 36.5188C70.5137 37.4149 70.4011 38.3088 70.1615 39.1724C69.9737 39.855 69.6073 40.4751 69.1 40.9689C68.5528 41.4584 67.8956 41.8089 67.1841 41.9905C66.2476 42.2319 65.2825 42.3444 64.3156 42.3249H63.4717C63.225 42.3249 62.9967 42.3249 62.7818 42.3249L62.129 42.301C61.9061 42.301 61.6567 42.2824 61.378 42.2665C61.0994 42.2506 60.7942 42.2426 60.4625 42.2426V47.9771L58.3848 47.9532ZM60.4546 32.8435V40.539C60.7863 40.539 61.0914 40.539 61.3701 40.5523L62.1662 40.5762L62.9145 40.6C63.1798 40.6 63.4452 40.6 63.7716 40.6C64.5395 40.6165 65.3065 40.5408 66.0564 40.3745C66.5851 40.2616 67.0764 40.0159 67.484 39.6607C67.8481 39.3105 68.1072 38.8657 68.2323 38.3763C68.3966 37.7432 68.4734 37.0905 68.4605 36.4365C68.471 35.8585 68.4022 35.2817 68.2562 34.7223C68.1411 34.2778 67.8974 33.8772 67.5556 33.5706C67.1478 33.2395 66.6664 33.011 66.1519 32.9046C65.4102 32.738 64.6511 32.6614 63.891 32.6764H63.2594C63.0472 32.6764 62.811 32.6764 62.5589 32.7002L61.6673 32.748C61.317 32.7798 60.9128 32.8117 60.4546 32.8435Z" fill="white"/>
<path d="M74.6966 30.3467V44.432C74.6772 44.8631 74.7375 45.294 74.8744 45.7031C74.9577 45.9556 75.1368 46.1653 75.3733 46.2869C75.5949 46.3839 75.8346 46.4328 76.0765 46.4302C76.2544 46.4283 76.4318 46.4123 76.6072 46.3825C76.8279 46.3458 77.0467 46.2979 77.2626 46.2392L77.4776 47.7862C77.1883 47.9196 76.8847 48.0193 76.5727 48.0834C76.2361 48.1558 75.8927 48.1923 75.5484 48.1922C75.0279 48.2063 74.5112 48.1 74.0385 47.8817C73.5911 47.6448 73.2415 47.2577 73.0513 46.7885C72.7809 46.0833 72.659 45.3298 72.6931 44.5753V30.3467H74.6966Z" fill="white"/>
<path d="M78.276 44.8962C78.2505 44.2317 78.4192 43.5742 78.7616 43.0042C79.1202 42.4783 79.6247 42.0688 80.2131 41.826C80.9795 41.5064 81.7812 41.2793 82.6013 41.1493C83.5531 40.983 84.6561 40.8441 85.9104 40.7327V38.9494C85.9295 38.6337 85.875 38.3178 85.7511 38.0268C85.6272 37.7357 85.4374 37.4775 85.1966 37.2724C84.7189 36.8814 84.0051 36.6868 83.0551 36.6886C82.7367 36.6886 82.3758 36.7045 81.9724 36.7363C81.5575 36.7695 81.1447 36.8253 80.7359 36.9035C80.3148 36.9814 79.8725 37.084 79.409 37.2113L79.0508 35.6192C79.7379 35.4131 80.4383 35.2544 81.1472 35.1442C81.8079 35.037 82.476 34.9811 83.1453 34.977C84.0502 34.9488 84.9517 35.0984 85.7989 35.4175C86.4594 35.6755 87.0182 36.1412 87.3911 36.7443C87.7674 37.4108 87.9511 38.1687 87.9218 38.9335V45.0952C87.9218 45.6259 87.9961 46.0001 88.1474 46.1885C88.2186 46.2811 88.3109 46.3554 88.4166 46.4053C88.5222 46.4551 88.6383 46.4791 88.7551 46.4751C88.8585 46.4732 88.9616 46.4617 89.0629 46.4406C89.1776 46.4152 89.2896 46.3788 89.3972 46.3318L89.6334 47.8072C89.3962 47.9346 89.1451 48.0343 88.8851 48.1044C88.6179 48.1771 88.3421 48.2137 88.0651 48.2132C87.5718 48.2401 87.0869 48.0778 86.7091 47.7594C86.3433 47.3963 86.1162 46.9165 86.067 46.4034C85.6698 46.7331 85.2475 47.0312 84.8038 47.2951C84.3271 47.5821 83.8151 47.806 83.2807 47.9611C82.6939 48.1333 82.085 48.2182 81.4736 48.2132C81.022 48.2207 80.5728 48.1479 80.1468 47.9983C79.7674 47.8596 79.4225 47.6406 79.1357 47.3561C78.8459 47.0623 78.6232 46.7093 78.4829 46.3212C78.3292 45.8624 78.2591 45.3797 78.276 44.8962ZM80.298 44.729C80.298 45.4136 80.4625 45.9231 80.7969 46.2655C80.9799 46.4403 81.1966 46.576 81.4339 46.664C81.6712 46.7521 81.924 46.7907 82.1768 46.7776C82.6267 46.7755 83.0738 46.7066 83.5036 46.5733C83.9573 46.4355 84.3929 46.244 84.8012 46.0028C85.2088 45.7666 85.5812 45.4745 85.9077 45.135V41.9082C85.0833 41.9878 84.3218 42.0834 83.623 42.1948C83.009 42.2837 82.4066 42.4394 81.8265 42.6592C81.3821 42.8184 80.9882 43.0932 80.6854 43.4553C80.4156 43.8186 80.2789 44.2636 80.298 44.7157V44.729Z" fill="white"/>
<path d="M91.2656 47.9534V35.2002H93.0966V36.3174C93.5938 36.0383 94.1068 35.7884 94.6331 35.569C95.1055 35.3734 95.595 35.2215 96.0952 35.1153C96.6123 35.011 97.1386 34.9595 97.6661 34.9614C98.3394 34.9388 99.0082 35.078 99.6165 35.3674C100.129 35.6257 100.549 36.0363 100.819 36.5429C101.113 37.1291 101.256 37.7794 101.235 38.4349V47.9534H99.2132V39.0055C99.2132 38.2465 99.0221 37.6627 98.6427 37.2594C98.2632 36.856 97.6741 36.6517 96.8807 36.6517C96.465 36.65 96.0503 36.6936 95.6441 36.7817C95.2401 36.8712 94.8455 36.9992 94.4659 37.1639C94.0758 37.3284 93.6831 37.5168 93.2877 37.7211V47.9534H91.2656Z" fill="white"/>
<path d="M109.111 48.192C108.319 48.2047 107.53 48.0836 106.779 47.8337C106.12 47.6106 105.527 47.2266 105.054 46.7166C104.555 46.1518 104.186 45.4854 103.971 44.7635C103.698 43.8369 103.57 42.8738 103.592 41.9082C103.566 40.7997 103.722 39.6944 104.053 38.6363C104.308 37.8363 104.734 37.1017 105.303 36.4842C105.818 35.9497 106.456 35.5496 107.161 35.3193C107.902 35.0774 108.677 34.9564 109.456 34.9611C111.091 34.9611 112.304 35.3936 113.097 36.2587C113.889 37.1238 114.287 38.5231 114.288 40.4567C114.288 40.5522 114.288 40.6929 114.275 40.8733C114.262 41.0538 114.275 41.2183 114.275 41.3616C113.941 41.3934 113.479 41.4306 112.916 41.4677L110.942 41.611C110.197 41.6659 109.381 41.7057 108.493 41.7304C107.605 41.7552 106.669 41.7755 105.685 41.7915C105.669 41.8736 105.661 41.9572 105.661 42.0409V42.2903C105.627 43.1412 105.777 43.9895 106.102 44.7768C106.357 45.3639 106.806 45.8461 107.373 46.1434C108.019 46.4499 108.728 46.5973 109.443 46.5733C109.956 46.5729 110.47 46.541 110.979 46.4777C111.494 46.4141 112.001 46.3389 112.5 46.2522C113.001 46.1646 113.45 46.0717 113.845 45.9868L114.111 47.4861C113.638 47.6389 113.157 47.7621 112.67 47.855C112.139 47.9576 111.576 48.0407 110.982 48.1044C110.36 48.1655 109.736 48.1948 109.111 48.192ZM105.709 40.4355C106.472 40.4355 107.205 40.4195 107.909 40.3877L109.849 40.3028C110.434 40.2798 110.938 40.2524 111.359 40.2205C111.778 40.1887 112.086 40.1568 112.274 40.125C112.281 39.4039 112.169 38.6866 111.943 38.0021C111.774 37.5032 111.432 37.0814 110.979 36.8133C110.476 36.5516 109.914 36.4245 109.347 36.4444C108.937 36.4451 108.528 36.505 108.135 36.6222C107.729 36.7468 107.356 36.9587 107.041 37.2432C106.672 37.5844 106.376 37.9969 106.171 38.4559C105.899 39.0825 105.743 39.7532 105.709 40.4355Z" fill="white"/>
<path d="M120.84 48.1923C120.171 48.2131 119.507 48.0614 118.914 47.7518C118.385 47.4503 117.977 46.9748 117.759 46.4064C117.494 45.6995 117.369 44.9479 117.39 44.1933V36.6995H115.201V35.3913L117.39 35.2002L117.656 32.1777H119.391V35.2002H123.65V36.6703H119.389V44.0447C119.389 44.9018 119.553 45.5254 119.877 45.9022C120.201 46.279 120.737 46.486 121.469 46.486C121.849 46.4862 122.228 46.4462 122.599 46.3666C122.989 46.2828 123.375 46.1792 123.754 46.0561L124.04 47.6032C123.492 47.8033 122.926 47.9508 122.35 48.0437C121.851 48.1319 121.346 48.1816 120.84 48.1923Z" fill="white"/>
<path d="M124.792 44.8966C124.766 44.2321 124.935 43.5746 125.277 43.0046C125.636 42.4787 126.141 42.0692 126.729 41.8264C127.495 41.5067 128.297 41.2796 129.117 41.1497C130.067 40.9834 131.169 40.8445 132.424 40.7331V38.9499C132.443 38.6341 132.388 38.3182 132.264 38.0272C132.14 37.7361 131.951 37.4779 131.71 37.2728C131.236 36.8818 130.522 36.6872 129.568 36.689C129.25 36.689 128.889 36.7049 128.486 36.7368C128.071 36.7699 127.658 36.8257 127.249 36.9039C126.828 36.9818 126.386 37.0844 125.922 37.2117L125.567 35.6196C126.253 35.4138 126.952 35.2551 127.66 35.1446C128.321 35.0375 128.989 34.9816 129.658 34.9774C130.563 34.9495 131.465 35.0992 132.312 35.4179C132.972 35.6763 133.531 36.1419 133.904 36.7447C134.281 37.4112 134.464 38.1691 134.435 38.9339V45.0956C134.435 45.6263 134.509 46.0005 134.661 46.1889C134.732 46.2815 134.824 46.3559 134.93 46.4057C135.035 46.4555 135.151 46.4795 135.268 46.4755C135.372 46.4738 135.475 46.4622 135.576 46.441C135.691 46.4156 135.803 46.3792 135.91 46.3322L136.149 47.8076C135.911 47.9346 135.659 48.0342 135.398 48.1048C135.131 48.1777 134.855 48.2143 134.578 48.2136C134.085 48.2406 133.6 48.0783 133.222 47.7599C132.858 47.3959 132.631 46.9166 132.58 46.4039C132.183 46.7335 131.761 47.0317 131.317 47.2955C130.841 47.582 130.33 47.8059 129.796 47.9615C129.209 48.1335 128.599 48.2184 127.987 48.2136C127.535 48.2211 127.086 48.1483 126.66 47.9987C126.281 47.8601 125.936 47.641 125.649 47.3565C125.36 47.062 125.137 46.7092 124.996 46.3216C124.843 45.8627 124.774 45.38 124.792 44.8966ZM126.814 44.7294C126.814 45.4141 126.981 45.9236 127.313 46.2659C127.496 46.4407 127.712 46.5764 127.95 46.6644C128.187 46.7525 128.44 46.7912 128.693 46.778C129.143 46.7759 129.59 46.707 130.019 46.5737C130.473 46.4369 130.909 46.2453 131.317 46.0032C131.725 45.767 132.097 45.4749 132.424 45.1354V41.9086C131.599 41.9882 130.838 42.0838 130.139 42.1952C129.525 42.2841 128.922 42.4398 128.342 42.6596C127.898 42.8188 127.504 43.0936 127.201 43.4557C126.931 43.819 126.795 44.264 126.814 44.7162V44.7294Z" fill="white"/>
<path d="M57.899 56.8589C57.8939 56.5431 57.926 56.2278 57.9945 55.9195C58.0454 55.6834 58.1478 55.4614 58.2944 55.2694C58.439 55.0947 58.6277 54.9618 58.841 54.8846C59.1126 54.7928 59.3983 54.7497 59.6849 54.7572C59.9706 54.7495 60.2555 54.7926 60.5261 54.8846C60.7405 54.9624 60.9308 55.0951 61.078 55.2694C61.2265 55.4606 61.3299 55.6828 61.3805 55.9195C61.4491 56.2278 61.4811 56.5431 61.4761 56.8589C61.4816 57.1804 61.4468 57.5013 61.3726 57.8142C61.3179 58.0531 61.211 58.277 61.0594 58.4696C60.9127 58.6444 60.7222 58.7771 60.5075 58.8544C59.9735 59.0208 59.4016 59.0208 58.8676 58.8544C58.6532 58.7779 58.4634 58.645 58.3183 58.4696C58.1659 58.2772 58.058 58.0533 58.0025 57.8142C57.9283 57.5013 57.8935 57.1804 57.899 56.8589ZM58.5518 56.8589C58.5415 57.1825 58.5818 57.5057 58.6712 57.8169C58.728 58.0266 58.8591 58.2086 59.0401 58.329C59.236 58.4407 59.4595 58.4949 59.6849 58.4856C59.9128 58.4951 60.1389 58.4409 60.3377 58.329C60.5179 58.2079 60.6488 58.0262 60.7065 57.8169C60.7935 57.5052 60.8329 57.1823 60.8233 56.8589C60.8327 56.5402 60.7951 56.2219 60.7118 55.9142C60.662 55.7083 60.5395 55.5274 60.3669 55.4047C60.1598 55.3056 59.9331 55.2541 59.7035 55.2541C59.4738 55.2541 59.2472 55.3056 59.0401 55.4047C58.8619 55.5246 58.7343 55.706 58.6818 55.9142C58.5952 56.2216 58.5515 56.5395 58.5518 56.8589Z" fill="white"/>
<path d="M62.5407 54.0114C62.4361 54.021 62.3313 53.9948 62.2435 53.9371C62.21 53.9022 62.1846 53.8603 62.169 53.8144C62.1534 53.7686 62.1481 53.7199 62.1533 53.6718C62.1488 53.6239 62.1542 53.5756 62.1693 53.5299C62.1843 53.4842 62.2087 53.4422 62.2409 53.4064C62.3333 53.356 62.4368 53.3296 62.5421 53.3296C62.6473 53.3296 62.7509 53.356 62.8432 53.4064C62.8744 53.4427 62.898 53.4849 62.9126 53.5305C62.9271 53.5761 62.9325 53.6241 62.9282 53.6718C62.9329 53.7194 62.9278 53.7676 62.9132 53.8132C62.8986 53.8589 62.8748 53.9011 62.8432 53.9371C62.7542 53.9964 62.6472 54.0227 62.5407 54.0114ZM62.225 58.902V54.8314H62.8645V58.902H62.225Z" fill="white"/>
<path d="M64.4376 53.2847V57.7799C64.432 57.9175 64.4509 58.0549 64.4933 58.1859C64.5217 58.2662 64.5796 58.3326 64.6552 58.3716C64.7255 58.4021 64.8015 58.4174 64.8781 58.4168C64.9351 58.4161 64.9919 58.4108 65.0479 58.4008C65.1186 58.3895 65.1885 58.3745 65.2576 58.3557L65.3266 58.8493C65.2337 58.891 65.1368 58.923 65.0373 58.9448C64.9299 58.9671 64.8206 58.9786 64.7109 58.9793C64.5446 58.9829 64.3797 58.9493 64.228 58.8811C64.0854 58.8052 63.9744 58.681 63.9148 58.5309C63.8283 58.306 63.7894 58.0657 63.8007 57.825V53.2847H64.4376Z" fill="white"/>
<path d="M67.5877 57.9229C67.5796 57.7111 67.6341 57.5016 67.7443 57.3205C67.8574 57.1509 68.0193 57.0195 68.2086 56.9437C68.4529 56.8411 68.7086 56.7681 68.9702 56.7261C69.2754 56.6731 69.6257 56.6306 70.0317 56.5934V56.0256C70.0367 55.9256 70.0188 55.8257 69.9792 55.7337C69.9396 55.6417 69.8795 55.56 69.8035 55.4949C69.604 55.3568 69.3634 55.2913 69.1215 55.3091C69.018 55.3091 68.9039 55.3091 68.7739 55.325C68.6419 55.3339 68.5107 55.3517 68.3811 55.3781C68.2458 55.402 68.1158 55.4365 67.9592 55.4763L67.8451 54.9668C68.064 54.9002 68.2875 54.8496 68.5138 54.8155C68.7245 54.782 68.9374 54.7643 69.1507 54.7625C69.4394 54.7528 69.7271 54.8006 69.9972 54.9031C70.2086 54.9842 70.3876 55.1324 70.5067 55.325C70.6264 55.5376 70.6851 55.7791 70.6765 56.0229V57.9893C70.6644 58.1106 70.6894 58.2327 70.7481 58.3395C70.7713 58.3684 70.8009 58.3916 70.8345 58.4072C70.8681 58.4229 70.9048 58.4306 70.9419 58.4298C70.9754 58.4321 71.0091 58.4321 71.0427 58.4298C71.0787 58.4203 71.1141 58.4088 71.1488 58.3953L71.2231 58.8649C71.1473 58.9054 71.0672 58.9374 70.9843 58.9605C70.8977 58.9831 70.8085 58.9947 70.719 58.995C70.5614 59.0036 70.4066 58.9513 70.2864 58.849C70.1697 58.7333 70.0973 58.5802 70.0821 58.4165C69.9548 58.5217 69.82 58.6175 69.6787 58.7031C69.5264 58.7938 69.3632 58.8652 69.1931 58.9154C69.0061 58.9698 68.8121 58.9966 68.6173 58.995C68.4737 58.9967 68.3309 58.9733 68.1954 58.926C68.074 58.882 67.9636 58.8123 67.8716 58.7217C67.7798 58.6271 67.7093 58.514 67.6647 58.3899C67.6089 58.2407 67.5828 58.0821 67.5877 57.9229ZM68.2352 57.8698C68.2216 58.0481 68.2788 58.2244 68.3944 58.3608C68.4526 58.4167 68.5218 58.46 68.5977 58.4879C68.6735 58.5158 68.7543 58.5276 68.8349 58.5226C68.9788 58.5223 69.1218 58.5008 69.2595 58.4589C69.4043 58.4146 69.5432 58.3532 69.6734 58.2758C69.8028 58.2042 69.9216 58.1149 70.0264 58.0105V56.9835C69.761 57.0101 69.5195 57.0393 69.2966 57.0764C69.101 57.1047 68.9088 57.1537 68.7234 57.2224C68.5805 57.2763 68.4548 57.368 68.3599 57.4877C68.2775 57.5979 68.2336 57.7322 68.2352 57.8698Z" fill="white"/>
<path d="M71.7354 58.9021V54.8314H72.3085V55.1897C72.4673 55.1004 72.6312 55.0206 72.7995 54.9508C72.9504 54.8882 73.1067 54.8394 73.2665 54.8049C73.4308 54.7723 73.5979 54.7563 73.7654 54.7571C73.9804 54.7499 74.194 54.7935 74.389 54.8845C74.5524 54.9683 74.6866 55.0997 74.7737 55.2613C74.8671 55.449 74.9126 55.6568 74.9064 55.8663V58.9021H74.2589V56.0415C74.2718 55.8395 74.2073 55.6403 74.0785 55.4842C74.0033 55.4146 73.9145 55.3615 73.8176 55.3281C73.7207 55.2948 73.618 55.282 73.5159 55.2905C73.3829 55.2897 73.2503 55.304 73.1205 55.3329C72.9922 55.3602 72.8668 55.4002 72.7464 55.4524C72.6217 55.5081 72.4969 55.5665 72.3696 55.6328V58.8968L71.7354 58.9021Z" fill="white"/>
<path d="M78.4324 58.9102L78.3554 58.5466C78.1481 58.6798 77.9264 58.7893 77.6947 58.873C77.4843 58.9435 77.2638 58.9794 77.0419 58.9792C76.8416 58.9854 76.643 58.9398 76.4654 58.8469C76.2878 58.7539 76.1373 58.6167 76.0282 58.4485C75.7599 57.9964 75.6341 57.4739 75.6673 56.9492C75.6533 56.5239 75.7199 56.0998 75.8637 55.6993C75.9795 55.398 76.1936 55.1446 76.4714 54.9802C76.7874 54.8138 77.1415 54.7333 77.4983 54.7467C77.6337 54.7467 77.7637 54.7467 77.9149 54.7653C78.0606 54.7792 78.2051 54.8031 78.3475 54.8369V53.2739H78.9843V58.8996L78.4324 58.9102ZM78.3475 58.0663V55.3331C78.2049 55.3 78.0604 55.2752 77.9149 55.2588C77.7943 55.2436 77.6729 55.2356 77.5514 55.2349C77.3116 55.2266 77.0741 55.2835 76.8641 55.3995C76.6681 55.5198 76.5242 55.7091 76.4608 55.9302C76.368 56.2489 76.3259 56.5802 76.336 56.912C76.3298 57.1972 76.3665 57.4816 76.4448 57.7559C76.4999 57.9535 76.6104 58.1312 76.7633 58.268C76.9065 58.3837 77.0861 58.4448 77.2701 58.4405C77.3845 58.4408 77.4986 58.4275 77.6098 58.4007C77.7302 58.3743 77.8469 58.3333 77.9574 58.2786C78.0918 58.2163 78.2221 58.1454 78.3475 58.0663Z" fill="white"/>
<path d="M83.4539 60.5737C82.996 60.6031 82.5384 60.5116 82.1271 60.3083C81.9846 60.2256 81.8674 60.1055 81.7884 59.9609C81.7093 59.8164 81.6714 59.6529 81.6786 59.4884C81.6763 59.3531 81.7006 59.2188 81.7503 59.093C81.8018 58.9733 81.8767 58.865 81.9705 58.7745C82.0819 58.6674 82.209 58.578 82.3473 58.5092L82.7586 58.6472C82.6476 58.6934 82.5446 58.757 82.4535 58.8356C82.382 58.9025 82.3243 58.9827 82.2836 59.0717C82.2432 59.1627 82.2233 59.2615 82.2252 59.361C82.2199 59.5115 82.2699 59.6588 82.3659 59.7749C82.4806 59.8958 82.6267 59.9822 82.7878 60.0244C83.0175 60.0883 83.2554 60.1178 83.4937 60.112C83.7489 60.1215 84.0041 60.0911 84.25 60.0217C84.4264 59.9742 84.5879 59.8829 84.7196 59.7564C84.8282 59.642 84.8873 59.4894 84.8842 59.3318C84.8892 59.2228 84.8595 59.115 84.7993 59.024C84.7365 58.9392 84.6481 58.8768 84.5472 58.8462C84.4032 58.8002 84.2524 58.7796 84.1014 58.7851H83.0611C82.8458 58.7903 82.6312 58.758 82.4269 58.6896C82.2695 58.6385 82.1315 58.5403 82.0315 58.4083C81.9408 58.2757 81.8944 58.1178 81.8989 57.9572C81.8946 57.7823 81.9457 57.6105 82.0448 57.4663C82.1565 57.3128 82.3017 57.1866 82.4694 57.0975L82.8329 57.2354C82.7133 57.2952 82.6054 57.3761 82.5145 57.4743C82.4376 57.5674 82.397 57.6852 82.4004 57.806C82.3988 57.8673 82.4125 57.928 82.4403 57.9827C82.4681 58.0374 82.5091 58.0842 82.5596 58.1191C82.7075 58.2098 82.8802 58.2516 83.0532 58.2385H84.2845C84.6055 58.2175 84.9234 58.3116 85.1814 58.5039C85.2853 58.6008 85.3664 58.7197 85.4188 58.8519C85.4711 58.9841 85.4933 59.1263 85.4839 59.2681C85.4903 59.5275 85.4058 59.7809 85.2451 59.9846C85.0646 60.1997 84.826 60.3581 84.5578 60.441C84.1997 60.5461 83.8266 60.5909 83.4539 60.5737ZM83.5069 57.3893C83.0912 57.4203 82.678 57.3017 82.342 57.055C82.0897 56.7872 81.9492 56.4331 81.9492 56.0652C81.9492 55.6973 82.0897 55.3432 82.342 55.0754C82.6911 54.8603 83.093 54.7464 83.503 54.7464C83.9129 54.7464 84.3149 54.8603 84.6639 55.0754C84.9162 55.3432 85.0567 55.6973 85.0567 56.0652C85.0567 56.4331 84.9162 56.7872 84.6639 57.055C84.3313 57.3054 83.9197 57.4278 83.5043 57.4L83.5069 57.3893ZM83.5069 56.9409C83.7589 56.9618 84.0097 56.888 84.2102 56.7339C84.2918 56.6446 84.3538 56.5392 84.3922 56.4245C84.4306 56.3098 84.4445 56.1883 84.4331 56.0679C84.4448 55.9454 84.431 55.8218 84.3927 55.7049C84.3543 55.588 84.2922 55.4803 84.2102 55.3885C84.0106 55.2323 83.7594 55.1574 83.5069 55.1789C83.2546 55.1588 83.0039 55.2335 82.8037 55.3885C82.7193 55.4789 82.6551 55.5863 82.6153 55.7034C82.5755 55.8205 82.561 55.9447 82.5729 56.0679C82.5612 56.1889 82.5758 56.3111 82.6157 56.4261C82.6555 56.541 82.7197 56.646 82.8037 56.7339C83.0026 56.89 83.252 56.9674 83.5043 56.9515L83.5069 56.9409ZM84.6772 55.3991L84.4118 55.0568C84.4693 54.9045 84.5769 54.7763 84.717 54.6933C84.8644 54.6084 85.0325 54.5661 85.2026 54.5712H85.3592C85.4086 54.5751 85.4575 54.584 85.5051 54.5977L85.4388 55.1072C85.4016 55.096 85.3634 55.0889 85.3247 55.086C85.2814 55.0833 85.2379 55.0833 85.1946 55.086C85.0889 55.0828 84.9843 55.1085 84.8921 55.1603C84.7949 55.2181 84.7186 55.3055 84.6745 55.4098L84.6772 55.3991Z" fill="white"/>
<path d="M85.7273 57.9229C85.7193 57.7111 85.7737 57.5016 85.8839 57.3205C85.9966 57.1515 86.1574 57.0202 86.3456 56.9437C86.591 56.8415 86.8475 56.7685 87.1099 56.7261C87.4124 56.6731 87.7653 56.6306 88.1713 56.5934V56.0256C88.1763 55.9256 88.1584 55.8257 88.1188 55.7337C88.0793 55.6417 88.0192 55.56 87.9431 55.4949C87.743 55.3563 87.5012 55.2907 87.2585 55.3091C87.1576 55.3091 87.0435 55.3091 86.9135 55.325C86.7807 55.3341 86.6486 55.3518 86.5181 55.3781C86.3854 55.402 86.2528 55.4365 86.0988 55.4763L85.9847 54.9668C86.2028 54.9004 86.4254 54.8499 86.6508 54.8155C86.8623 54.7819 87.0761 54.7642 87.2903 54.7625C87.579 54.7528 87.8668 54.8006 88.1368 54.9031C88.3482 54.9842 88.5272 55.1324 88.6463 55.325C88.766 55.5376 88.8248 55.7791 88.8161 56.0229V57.9893C88.804 58.1106 88.829 58.2327 88.8878 58.3395C88.911 58.3684 88.9405 58.3916 88.9741 58.4072C89.0077 58.4229 89.0445 58.4306 89.0815 58.4298C89.1142 58.4322 89.147 58.4322 89.1797 58.4298C89.2159 58.4211 89.2514 58.4095 89.2858 58.3953L89.3628 58.8649C89.2865 58.9045 89.2065 58.9364 89.124 58.9605C89.0373 58.9831 88.9482 58.9947 88.8586 58.995C88.701 59.0041 88.5459 58.9518 88.4261 58.849C88.3093 58.7333 88.237 58.5802 88.2217 58.4165C88.094 58.5211 87.9592 58.6168 87.8184 58.7031C87.666 58.7938 87.5029 58.8652 87.3328 58.9154C87.1457 58.9698 86.9517 58.9966 86.7569 58.995C86.6133 58.9971 86.4705 58.9738 86.335 58.926C86.2133 58.8827 86.1027 58.8129 86.0113 58.7217C85.9195 58.6265 85.8482 58.5137 85.8016 58.39C85.7482 58.2402 85.723 58.0818 85.7273 57.9229ZM86.3722 57.8698C86.3593 58.0484 86.4175 58.2248 86.534 58.3608C86.5923 58.4167 86.6615 58.46 86.7373 58.4879C86.8131 58.5158 86.8939 58.5276 86.9745 58.5226C87.1184 58.5221 87.2614 58.5006 87.3991 58.4589C87.5439 58.4146 87.6829 58.3532 87.8131 58.2758C87.9425 58.2042 88.0613 58.1149 88.166 58.0105V56.9835C87.9007 57.0101 87.6592 57.0393 87.4363 57.0764C87.2406 57.1047 87.0485 57.1537 86.8631 57.2224C86.7201 57.2763 86.5945 57.368 86.4995 57.4877C86.4162 57.5976 86.3714 57.7319 86.3722 57.8698Z" fill="white"/>
<path d="M89.6074 58.735L89.7083 58.2573C89.7988 58.2956 89.8919 58.3275 89.9869 58.3529C90.093 58.3794 90.2071 58.4033 90.3265 58.4245C90.446 58.4454 90.5665 58.4595 90.6874 58.467C90.8069 58.467 90.9236 58.467 91.0351 58.467C91.2846 58.482 91.5335 58.4278 91.7542 58.3104C91.871 58.2309 91.9537 58.1105 91.9861 57.9729C92.0186 57.8354 91.9983 57.6907 91.9293 57.5674C91.8753 57.4847 91.8038 57.4149 91.7197 57.3631C91.6116 57.2972 91.4969 57.243 91.3774 57.2012C91.242 57.1534 91.0802 57.1057 90.8918 57.0553C90.7292 57.0159 90.5702 56.9626 90.4168 56.896C90.2811 56.8354 90.1558 56.7539 90.0453 56.6546C89.9434 56.5645 89.8628 56.4531 89.8091 56.3282C89.7534 56.1928 89.7263 56.0473 89.7295 55.9009C89.7212 55.7386 89.7518 55.5766 89.8188 55.4285C89.8857 55.2803 89.987 55.1503 90.1143 55.0491C90.4477 54.8249 90.8465 54.7185 91.2474 54.7466C91.4013 54.7466 91.5446 54.7466 91.6825 54.7679C91.8138 54.7835 91.944 54.8065 92.0726 54.8368C92.1973 54.8687 92.3061 54.9005 92.4017 54.935L92.3115 55.4206L92.001 55.3384C91.8855 55.3111 91.7686 55.2907 91.6507 55.2773C91.5151 55.2618 91.3786 55.2548 91.242 55.2561C91.0066 55.2414 90.772 55.2968 90.568 55.4153C90.4956 55.4615 90.4362 55.5255 90.3958 55.6013C90.3553 55.6771 90.3352 55.762 90.3372 55.8479C90.3356 55.942 90.3624 56.0345 90.4141 56.1132C90.4697 56.1916 90.5435 56.2553 90.6291 56.299C90.7342 56.354 90.8433 56.401 90.9555 56.4396C91.0802 56.4821 91.2208 56.5245 91.3615 56.5643C91.5415 56.6129 91.7186 56.6714 91.8922 56.7395C92.0346 56.7955 92.1678 56.8725 92.2876 56.9677C92.4031 57.0546 92.4945 57.1698 92.5529 57.302C92.6149 57.4535 92.6447 57.6161 92.6405 57.7797C92.6426 57.9287 92.6184 58.077 92.5689 58.2175C92.5225 58.3431 92.447 58.4559 92.3486 58.5466C92.2475 58.6406 92.1319 58.7176 92.0063 58.7748C91.8676 58.8389 91.7214 58.8852 91.5711 58.9128C91.3959 58.9438 91.2183 58.9588 91.0404 58.9579C90.8692 58.9579 90.6981 58.9472 90.5282 58.9261C90.365 58.9086 90.2029 58.882 90.0426 58.8465C89.894 58.8248 89.7481 58.7874 89.6074 58.735Z" fill="white"/>
</g>
<defs>
<clipPath id="clip0_6287_23">
<rect width="200" height="60.2741" fill="white" transform="translate(0 0.299805)"/>
</clipPath>
</defs>
</svg>
