<svg width="160" height="49" viewBox="0 0 160 49" fill="none" xmlns="http://www.w3.org/2000/svg">
<g clip-path="url(#clip0_6011_1851)">
<path d="M38.942 10.6253C36.6303 5.73928 32.9821 2.28017 27.5938 0.888954C24.9795 0.212262 22.5858 0.899461 20.7617 2.61851C18.5513 4.74121 15.8417 6.27273 12.8831 7.07165C10.0124 7.85131 7.25097 8.78019 4.83841 10.6316C-0.205251 14.5005 -0.766358 22.1186 3.70779 26.349C5.58569 28.1497 7.69869 29.688 9.98926 30.9219C12.7717 32.3929 14.7345 34.6017 16.8171 36.7935C18.1936 38.2394 19.5491 39.7546 21.6128 40.3493C24.5003 41.1899 27.1692 40.5595 29.8424 39.431C32.5155 38.3024 34.8566 36.7221 36.6429 34.4693C39.7574 30.5394 41.0561 25.9497 41.1675 20.988C41.2232 17.4095 40.462 13.8654 38.942 10.6253ZM22.2201 34.4924C15.1905 34.4545 10.0544 29.1818 9.9073 22.3729C9.75599 15.3937 15.3944 9.8919 22.2201 9.83095C28.966 9.78052 34.7305 15.4231 34.5981 22.1627C34.5288 28.8056 29.3843 34.5323 22.2201 34.4924Z" fill="url(#paint0_linear_6011_1851)"/>
<path d="M46.9199 19.6141V6.42285H48.5591V19.6141H46.9199Z" fill="#C5282C"/>
<path d="M51.0117 19.6141V9.51412H52.4639V10.3989C52.8569 10.1779 53.2625 9.98001 53.6786 9.80623C54.0534 9.651 54.4417 9.5307 54.8386 9.44687C55.2474 9.36431 55.6635 9.32347 56.0806 9.32498C56.6144 9.3078 57.1446 9.41802 57.6273 9.64652C58.033 9.85062 58.365 10.176 58.5772 10.5775C58.8102 11.0417 58.9236 11.5567 58.9072 12.0759V19.6141H57.3058V12.5277C57.3058 11.9267 57.1552 11.465 56.854 11.1428C56.5534 10.8234 56.0869 10.6637 55.4607 10.6637C55.1307 10.6623 54.8017 10.6968 54.4792 10.7666C54.1552 10.8374 53.8385 10.9387 53.5336 11.0693C53.2267 11.1995 52.9157 11.3488 52.6026 11.5106V19.6141H51.0117Z" fill="#C5282C"/>
<path d="M63.8302 19.6141L60.1357 9.57087L61.7749 9.43848L64.7717 18.0547L67.6361 9.43848L69.2564 9.57087L65.564 19.6141H63.8302Z" fill="#C5282C"/>
<path d="M74.1664 19.8004C73.5392 19.8111 72.9147 19.7159 72.3191 19.5188C71.7975 19.3416 71.3281 19.0376 70.9531 18.6341C70.5585 18.1868 70.2659 17.659 70.0957 17.0874C69.8808 16.3534 69.7795 15.5908 69.7952 14.8261C69.7745 13.948 69.8987 13.0726 70.163 12.2349C70.3628 11.6006 70.7009 11.0185 71.1528 10.5306C71.5598 10.1068 72.0651 9.78989 72.6238 9.60802C73.2113 9.41645 73.8258 9.32066 74.4438 9.32432C75.7369 9.32432 76.698 9.66687 77.3271 10.352C77.9561 11.0371 78.2721 12.1446 78.2749 13.6745C78.2749 13.7501 78.2749 13.8615 78.2643 14.0044C78.2538 14.1473 78.2643 14.2776 78.2643 14.3911C77.9996 14.4163 77.6339 14.4457 77.1905 14.4752L75.6269 14.5886C75.0371 14.6321 74.3898 14.6636 73.6851 14.6832C72.9811 14.7021 72.2414 14.7189 71.4617 14.7315C71.4489 14.7966 71.4425 14.8628 71.4428 14.9291V15.1266C71.4157 15.8005 71.5347 16.4722 71.7916 17.0958C71.9941 17.5614 72.3501 17.9434 72.8004 18.1781C73.3118 18.4208 73.8738 18.5375 74.4396 18.5185C74.8456 18.5182 75.2513 18.493 75.6543 18.4428C76.062 18.3924 76.4654 18.3336 76.8605 18.2642C77.2556 18.1949 77.6108 18.1213 77.9239 18.0541L78.1341 19.2414C77.7611 19.3626 77.3806 19.4595 76.995 19.5314C76.5747 19.6141 76.1285 19.6841 75.6564 19.7416C75.161 19.7867 74.6637 19.8064 74.1664 19.8004ZM71.4722 13.6577C72.0753 13.6577 72.6554 13.6577 73.2144 13.6198L74.7506 13.5547C75.2157 13.5365 75.6143 13.5148 75.9464 13.4895C76.2805 13.4643 76.5222 13.4391 76.6735 13.4139C76.6796 12.8426 76.5901 12.2744 76.4087 11.7327C76.2754 11.3376 76.0047 11.0035 75.6458 10.7912C75.2482 10.5839 74.8036 10.4832 74.3555 10.4991C74.0302 10.4984 73.7066 10.5458 73.3951 10.6399C73.0739 10.7385 72.7778 10.9056 72.5272 11.1295C72.2359 11.4011 72.0022 11.7284 71.84 12.092C71.624 12.5875 71.4994 13.1179 71.4722 13.6577Z" fill="#C5282C"/>
<path d="M79.3818 19.1997L79.6256 18.0123C79.8519 18.1084 80.0851 18.1871 80.3233 18.2477C80.5881 18.3171 80.8676 18.3759 81.1639 18.4263C81.4603 18.4766 81.7591 18.5109 82.0592 18.5293C82.3618 18.5482 82.6497 18.5587 82.9271 18.5587C83.7047 18.5587 84.2994 18.4284 84.7071 18.1721C84.9965 17.9735 85.2013 17.674 85.2814 17.3323C85.3615 16.9906 85.3111 16.6313 85.14 16.3248C85.0076 16.1183 84.8302 15.9444 84.6209 15.8163C84.3562 15.6539 84.0743 15.5214 83.7803 15.4212C83.442 15.3014 83.0385 15.1795 82.5741 15.0534C82.17 14.9599 81.7759 14.8276 81.3972 14.6583C81.0602 14.5088 80.7484 14.3082 80.4725 14.0636C80.2212 13.8396 80.0218 13.5635 79.8883 13.2545C79.752 12.9161 79.6848 12.5538 79.6908 12.189C79.6908 11.2854 80.0081 10.5848 80.6428 10.0875C81.2774 9.59013 82.2168 9.33864 83.4609 9.33304C83.8196 9.33213 84.1781 9.35107 84.5348 9.38978C84.8611 9.42545 85.1847 9.48231 85.5036 9.56C85.7815 9.62688 86.0558 9.70825 86.3253 9.80378L86.0983 11.0101C85.8461 10.9344 85.5897 10.8672 85.325 10.7999C85.0395 10.733 84.7504 10.6825 84.4591 10.6486C84.1215 10.6095 83.7819 10.5905 83.442 10.5919C82.7121 10.5919 82.1559 10.7236 81.7734 10.9869C81.5936 11.1016 81.4464 11.2607 81.3459 11.4488C81.2454 11.6368 81.1951 11.8476 81.1997 12.0608C81.1896 12.3044 81.255 12.5451 81.3867 12.7501C81.5267 12.9443 81.7112 13.1021 81.9247 13.2104C82.1846 13.3482 82.4551 13.4649 82.7338 13.5592C83.042 13.6657 83.3782 13.7694 83.7425 13.8702C84.2329 14.0103 84.6665 14.1546 85.0434 14.3032C85.3963 14.4415 85.7264 14.632 86.0227 14.8685C86.2974 15.0938 86.5137 15.3822 86.6531 15.7091C86.8051 16.0859 86.8767 16.4903 86.8633 16.8964C86.8692 17.265 86.8087 17.6316 86.6846 17.9787C86.5711 18.2919 86.3837 18.5731 86.1382 18.7983C85.8892 19.0294 85.6056 19.2202 85.2976 19.3636C84.952 19.5226 84.5877 19.637 84.2132 19.7041C83.7847 19.7814 83.3499 19.8187 82.9145 19.8155C82.4889 19.8152 82.0637 19.7907 81.641 19.7419C81.2207 19.6915 80.8193 19.6214 80.4368 19.5317C80.0746 19.458 79.721 19.3468 79.3818 19.1997Z" fill="#C5282C"/>
<path d="M91.8036 19.8007C91.2731 19.8177 90.7471 19.6983 90.2758 19.454C89.8571 19.2158 89.5345 18.839 89.3638 18.3885C89.154 17.8287 89.0548 17.2334 89.0717 16.6358V10.7011H87.3379V9.66507L89.0717 9.51376L89.2818 7.12012H90.6583V9.51376H94.0313V10.6822H90.6541V16.5224C90.6541 17.2004 90.7823 17.6908 91.0387 17.9934C91.2951 18.296 91.7196 18.4502 92.3122 18.4558C92.6131 18.4557 92.9132 18.424 93.2075 18.3612C93.5154 18.2945 93.8198 18.2125 94.1195 18.1153L94.3465 19.3405C93.9125 19.4995 93.4642 19.6163 93.0078 19.6894C92.6099 19.7577 92.2073 19.795 91.8036 19.8007Z" fill="#C5282C"/>
<path d="M96.4569 7.47753C96.1977 7.50025 95.9383 7.43431 95.7214 7.2905C95.6382 7.20347 95.575 7.09935 95.5361 6.98538C95.4973 6.87141 95.4838 6.75034 95.4965 6.63062C95.4818 6.50906 95.4929 6.38576 95.5292 6.26879C95.5654 6.15182 95.6259 6.04381 95.7067 5.95183C95.9373 5.82893 96.1946 5.76465 96.4559 5.76465C96.7172 5.76465 96.9745 5.82893 97.2051 5.95183C97.2842 6.0449 97.3436 6.15303 97.3797 6.2697C97.4158 6.38637 97.4279 6.50914 97.4152 6.63062C97.4271 6.74913 97.4146 6.86882 97.3785 6.98231C97.3423 7.0958 97.2833 7.20069 97.2051 7.2905C97.0727 7.41659 96.8247 7.47753 96.4569 7.47753ZM95.6668 19.6139V9.51391H97.245V19.6139H95.6668Z" fill="#C5282C"/>
<path d="M99.6045 19.6138V9.51385H101.055V10.3986C101.393 10.1926 101.744 10.0073 102.105 9.84379C102.454 9.68718 102.817 9.56404 103.19 9.47602C103.569 9.38669 103.958 9.34225 104.348 9.34363C104.683 9.33832 105.017 9.38583 105.337 9.48443C105.606 9.57187 105.855 9.7103 106.071 9.89212C106.273 10.062 106.439 10.2698 106.561 10.5037C106.89 10.2891 107.233 10.0974 107.588 9.92995C107.967 9.75399 108.361 9.6133 108.765 9.50965C109.208 9.39414 109.665 9.33691 110.123 9.33942C110.464 9.33311 110.803 9.38063 111.129 9.48022C111.658 9.65043 112.102 10.0146 112.373 10.4995C112.508 10.7369 112.604 10.9945 112.657 11.2623C112.713 11.539 112.741 11.8206 112.741 12.1029V19.6222H111.159V12.5464C111.16 12.3186 111.134 12.0915 111.083 11.8697C111.034 11.658 110.948 11.4567 110.829 11.2749C110.697 11.0837 110.514 10.9336 110.301 10.842C110.03 10.7279 109.738 10.6734 109.444 10.6823C109.114 10.6809 108.784 10.7218 108.465 10.8042C108.163 10.8807 107.87 10.9849 107.588 11.1152C107.333 11.2323 107.084 11.3642 106.844 11.5103C106.904 11.6681 106.945 11.8325 106.966 12C106.984 12.1506 106.993 12.3022 106.993 12.4539V19.6138H105.392V12.5464C105.392 12.3283 105.37 12.1108 105.327 11.897C105.286 11.6848 105.202 11.4832 105.081 11.3044C104.947 11.1147 104.765 10.9644 104.554 10.8693C104.284 10.7497 103.991 10.6923 103.696 10.7012C103.407 10.7017 103.119 10.7392 102.839 10.8126C102.558 10.8885 102.284 10.9862 102.019 11.1047C101.756 11.2245 101.485 11.3611 101.21 11.5103V19.6138H99.6045Z" fill="#C5282C"/>
<path d="M118.975 19.8004C118.348 19.8112 117.723 19.7159 117.128 19.5188C116.606 19.3421 116.136 19.038 115.762 18.6341C115.367 18.1868 115.075 17.659 114.904 17.0874C114.689 16.3534 114.588 15.5908 114.604 14.8261C114.583 13.948 114.707 13.0726 114.972 12.2349C115.172 11.6011 115.509 11.0192 115.959 10.5306C116.367 10.1077 116.872 9.79098 117.43 9.60802C118.018 9.41645 118.632 9.32066 119.25 9.32432C120.542 9.32432 121.502 9.66687 122.131 10.352C122.761 11.0371 123.081 12.1446 123.094 13.6745C123.094 13.7501 123.094 13.8615 123.083 14.0044C123.073 14.1473 123.083 14.2776 123.083 14.3911C122.819 14.4163 122.453 14.4457 122.01 14.4752L120.444 14.5886C119.853 14.6328 119.208 14.6643 118.504 14.6832C117.8 14.7021 117.058 14.7189 116.281 14.7315C116.268 14.7966 116.262 14.8628 116.262 14.9291V15.1266C116.235 15.8005 116.354 16.4722 116.611 17.0958C116.813 17.5608 117.168 17.9426 117.617 18.1781C118.129 18.4203 118.691 18.537 119.257 18.5185C119.663 18.5183 120.07 18.493 120.473 18.4428C120.881 18.3924 121.283 18.3329 121.68 18.2642C122.075 18.1949 122.43 18.1213 122.743 18.0541L122.953 19.2414C122.58 19.3627 122.2 19.4595 121.814 19.5314C121.394 19.6141 120.948 19.6841 120.475 19.7416C119.977 19.7871 119.476 19.8067 118.975 19.8004ZM116.281 13.6577C116.884 13.6577 117.464 13.6577 118.023 13.6198L119.559 13.5547C120.024 13.5365 120.423 13.5148 120.755 13.4895C121.089 13.4643 121.331 13.4391 121.482 13.4139C121.487 12.8427 121.398 12.2746 121.217 11.7327C121.084 11.3376 120.813 11.0035 120.454 10.7912C120.057 10.5839 119.612 10.4832 119.164 10.4991C118.838 10.4986 118.514 10.546 118.202 10.6399C117.881 10.7383 117.585 10.9054 117.336 11.1295C117.044 11.4005 116.81 11.728 116.649 12.092C116.433 12.5875 116.308 13.1179 116.281 13.6577Z" fill="#C5282C"/>
<path d="M124.891 19.6141V9.51412H126.343V10.3989C126.736 10.1779 127.141 9.98001 127.557 9.80623C127.932 9.651 128.321 9.5307 128.718 9.44687C129.126 9.36431 129.542 9.32347 129.96 9.32498C130.493 9.3078 131.024 9.41802 131.506 9.64652C131.912 9.85062 132.244 10.176 132.456 10.5775C132.689 11.0417 132.802 11.5567 132.786 12.0759V19.6141H131.185V12.5277C131.185 11.9267 131.034 11.465 130.733 11.1428C130.432 10.8234 129.966 10.6637 129.337 10.6637C129.008 10.6624 128.68 10.6969 128.358 10.7666C128.038 10.8382 127.726 10.9395 127.425 11.0693C127.118 11.1995 126.807 11.3488 126.492 11.5106V19.6141H124.891Z" fill="#C5282C"/>
<path d="M138.571 19.8007C138.041 19.8179 137.516 19.6985 137.046 19.454C136.626 19.2164 136.302 18.8395 136.131 18.3885C135.922 17.8287 135.822 17.2334 135.839 16.6358V10.7011H134.105V9.66507L135.839 9.51376L136.049 7.12012H137.426V9.51376H140.799V10.6822H137.422V16.5224C137.422 17.2004 137.551 17.6908 137.808 17.9934C138.066 18.296 138.49 18.4502 139.08 18.4558C139.381 18.4558 139.681 18.4241 139.975 18.3612C140.269 18.2981 140.574 18.2162 140.889 18.1153L141.114 19.3405C140.681 19.4993 140.233 19.6161 139.777 19.6894C139.379 19.7577 138.976 19.7949 138.571 19.8007Z" fill="#C5282C"/>
<path d="M141.698 14.5447C141.686 13.7579 141.765 12.9723 141.934 12.2036C142.06 11.6176 142.315 11.067 142.68 10.5918C143.037 10.1578 143.506 9.82939 144.035 9.64186C145.397 9.21313 146.858 9.21313 148.22 9.64186C148.751 9.83145 149.223 10.1593 149.586 10.5918C149.955 11.065 150.213 11.6162 150.338 12.2036C150.508 12.9707 150.588 13.755 150.575 14.5405C150.589 15.3362 150.502 16.1304 150.319 16.9047C150.183 17.4996 149.916 18.0567 149.537 18.5355C149.176 18.9695 148.704 19.2978 148.171 19.4854C147.513 19.709 146.821 19.8143 146.126 19.7964C145.439 19.8133 144.753 19.708 144.103 19.4854C143.57 19.2978 143.098 18.9695 142.737 18.5355C142.358 18.0563 142.091 17.4995 141.953 16.9047C141.771 16.1315 141.686 15.3389 141.698 14.5447ZM143.319 14.5447C143.294 15.3466 143.393 16.1474 143.611 16.9194C143.754 17.4386 144.079 17.8895 144.525 18.1909C145.013 18.4661 145.567 18.6 146.126 18.5776C146.693 18.6017 147.254 18.4678 147.749 18.1909C148.195 17.8899 148.519 17.4388 148.661 16.9194C148.88 16.1476 148.978 15.3466 148.953 14.5447C148.977 13.7538 148.885 12.9637 148.68 12.1994C148.548 11.6855 148.233 11.2372 147.795 10.9385C147.277 10.684 146.708 10.5517 146.132 10.5517C145.555 10.5517 144.986 10.684 144.468 10.9385C144.027 11.2341 143.711 11.6837 143.584 12.1994C143.385 12.9648 143.296 13.7544 143.319 14.5447Z" fill="#C5282C"/>
<path d="M151.592 19.1993L151.836 18.012C152.062 18.1081 152.295 18.1867 152.533 18.2473C152.796 18.3167 153.075 18.3755 153.374 18.426C153.67 18.4763 153.969 18.5107 154.269 18.5289C154.57 18.5479 154.86 18.5584 155.135 18.5584C155.915 18.5584 156.507 18.4281 156.917 18.1717C157.206 17.9731 157.411 17.6736 157.491 17.3319C157.571 16.9902 157.521 16.6309 157.35 16.3244C157.218 16.1179 157.04 15.944 156.831 15.8159C156.566 15.6535 156.284 15.521 155.99 15.4208C155.65 15.3017 155.248 15.1791 154.784 15.053C154.38 14.9595 153.986 14.8272 153.607 14.6579C153.27 14.5084 152.958 14.3078 152.682 14.0632C152.43 13.8397 152.229 13.5635 152.094 13.2541C151.958 12.9157 151.891 12.5534 151.897 12.1886C151.897 11.285 152.214 10.5845 152.849 10.0871C153.483 9.58975 154.423 9.33547 155.667 9.32426C156.025 9.32323 156.384 9.34218 156.741 9.381C157.068 9.41646 157.392 9.47333 157.711 9.55122C157.989 9.61779 158.262 9.69916 158.531 9.795L158.306 11.0013C158.054 10.9256 157.798 10.8584 157.533 10.7911C157.247 10.7242 156.958 10.6737 156.667 10.6398C156.329 10.6006 155.988 10.5817 155.648 10.5831C154.921 10.5831 154.364 10.7155 153.981 10.9782C153.801 11.0923 153.653 11.2512 153.552 11.4393C153.451 11.6275 153.401 11.8386 153.405 12.052C153.396 12.2958 153.462 12.5365 153.595 12.7413C153.735 12.9355 153.919 13.0933 154.133 13.2016C154.392 13.3395 154.663 13.4561 154.942 13.5504C155.251 13.6576 155.585 13.7606 155.95 13.8615C156.439 14.0016 156.873 14.1459 157.251 14.2944C157.604 14.4327 157.934 14.6232 158.231 14.8597C158.505 15.0857 158.721 15.3739 158.861 15.7003C159.013 16.0771 159.085 16.4815 159.071 16.8877C159.077 17.2562 159.017 17.6228 158.892 17.9699C158.779 18.2831 158.592 18.5643 158.346 18.7895C158.097 19.0202 157.813 19.2109 157.505 19.3548C157.16 19.5138 156.796 19.6282 156.421 19.6953C155.992 19.7726 155.556 19.8099 155.12 19.8067C154.699 19.806 154.278 19.7815 153.859 19.7331C153.439 19.6827 153.037 19.6126 152.653 19.523C152.289 19.4522 151.933 19.3438 151.592 19.1993Z" fill="#C5282C"/>
<path d="M46.9199 38.3717V25.1615C47.6849 25.1139 48.3378 25.0768 48.8785 25.0502C49.4186 25.0249 49.8789 25.0081 50.255 25.0018C50.6312 24.9955 50.9338 25.0018 51.1587 25.0018C52.0467 24.986 52.934 25.0614 53.8066 25.2267C54.4078 25.3351 54.9739 25.5874 55.4563 25.9622C55.8657 26.3142 56.1552 26.7851 56.2843 27.3093C56.4472 27.9655 56.5235 28.6402 56.5113 29.3163C56.5254 30.0259 56.4362 30.7338 56.2465 31.4178C56.0978 31.9583 55.8076 32.4495 55.4059 32.8405C54.9725 33.2282 54.452 33.5057 53.8886 33.6496C53.1469 33.8408 52.3826 33.9299 51.6168 33.9144H50.9486C50.7531 33.9144 50.5724 33.9144 50.4022 33.9144L49.8852 33.8955C49.7087 33.8955 49.5111 33.8808 49.2904 33.8682C49.0698 33.8556 48.8281 33.8493 48.5654 33.8493V38.3907L46.9199 38.3717ZM48.5591 26.4056V32.5001C48.8218 32.5001 49.0635 32.5001 49.2841 32.5106L49.9146 32.5295L50.5072 32.5484C50.7174 32.5484 50.9275 32.5484 51.186 32.5484C51.7941 32.5614 52.4016 32.5015 52.9954 32.3698C53.4142 32.2804 53.8033 32.0858 54.1261 31.8045C54.4144 31.5272 54.6196 31.1749 54.7187 30.7873C54.8488 30.2859 54.9096 29.769 54.8994 29.2511C54.9077 28.7933 54.8532 28.3366 54.7376 27.8935C54.6465 27.5415 54.4535 27.2243 54.1828 26.9815C53.8598 26.7192 53.4785 26.5383 53.0711 26.454C52.4837 26.3221 51.8825 26.2614 51.2806 26.2733H50.7804C50.6123 26.2733 50.4253 26.2732 50.2256 26.2922L49.5195 26.33C49.2421 26.3552 48.922 26.3804 48.5591 26.4056Z" fill="#C5282C"/>
<path d="M59.8372 24.4287V35.5836C59.8218 35.925 59.8696 36.2662 59.978 36.5903C60.044 36.7902 60.1858 36.9562 60.3731 37.0526C60.5486 37.1294 60.7384 37.1681 60.93 37.1661C61.0709 37.1645 61.2114 37.1519 61.3503 37.1282C61.5251 37.0992 61.6984 37.0613 61.8694 37.0148L62.0396 38.24C61.8105 38.3456 61.5701 38.4246 61.323 38.4753C61.0564 38.5327 60.7845 38.5616 60.5118 38.5615C60.0996 38.5726 59.6904 38.4885 59.316 38.3156C58.9617 38.1279 58.6849 37.8214 58.5342 37.4498C58.3201 36.8913 58.2235 36.2946 58.2505 35.6971V24.4287H59.8372Z" fill="#C5282C"/>
<path d="M62.6729 35.9509C62.6527 35.4247 62.7864 34.904 63.0575 34.4526C63.3415 34.0361 63.741 33.7118 64.207 33.5195C64.814 33.2664 65.4489 33.0865 66.0984 32.9836C66.8521 32.8519 67.7257 32.7419 68.719 32.6536V31.2414C68.7341 30.9914 68.691 30.7412 68.5929 30.5107C68.4947 30.2802 68.3444 30.0757 68.1537 29.9133C67.7754 29.6036 67.2101 29.4495 66.4577 29.4509C66.2056 29.4509 65.9198 29.4635 65.6003 29.4887C65.2717 29.515 64.9448 29.5592 64.621 29.6211C64.2876 29.6828 63.9373 29.764 63.5702 29.8649L63.2865 28.604C63.8307 28.4408 64.3854 28.3152 64.9467 28.2278C65.47 28.1429 65.9991 28.0987 66.5292 28.0954C67.2458 28.0731 67.9598 28.1916 68.6307 28.4443C69.1538 28.6487 69.5963 29.0174 69.8916 29.4951C70.1896 30.0229 70.3351 30.6231 70.3119 31.2288V36.1086C70.3119 36.5289 70.3708 36.8252 70.4906 36.9744C70.547 37.0477 70.6201 37.1066 70.7037 37.1461C70.7874 37.1855 70.8793 37.2045 70.9718 37.2014C71.0538 37.1999 71.1354 37.1907 71.2156 37.174C71.3064 37.1539 71.3951 37.1251 71.4804 37.0879L71.6674 38.2563C71.4795 38.3572 71.2807 38.4361 71.0748 38.4917C70.8632 38.5493 70.6448 38.5782 70.4254 38.5779C70.0348 38.5992 69.6507 38.4707 69.3515 38.2185C69.0619 37.9309 68.8819 37.551 68.843 37.1446C68.5285 37.4057 68.194 37.6418 67.8426 37.8507C67.4651 38.078 67.0596 38.2553 66.6364 38.3782C66.1717 38.5146 65.6895 38.5818 65.2052 38.5779C64.8477 38.5838 64.4919 38.5261 64.1545 38.4076C63.854 38.2979 63.5809 38.1244 63.3538 37.8991C63.1243 37.6664 62.9479 37.3868 62.8368 37.0795C62.7151 36.7161 62.6595 36.3339 62.6729 35.9509ZM64.2743 35.8185C64.2743 36.3607 64.4045 36.7642 64.6693 37.0353C64.8142 37.1738 64.9859 37.2812 65.1739 37.351C65.3618 37.4207 65.562 37.4513 65.7621 37.4409C66.1185 37.4392 66.4726 37.3847 66.8129 37.2791C67.1722 37.17 67.5172 37.0183 67.8405 36.8273C68.1633 36.6403 68.4583 36.409 68.7169 36.1401V33.5846C68.064 33.6477 67.4609 33.7233 66.9075 33.8116C66.4212 33.882 65.9442 34.0053 65.4847 34.1794C65.1328 34.3054 64.8209 34.523 64.5811 34.8098C64.3674 35.0976 64.2591 35.45 64.2743 35.808V35.8185Z" fill="#C5282C"/>
<path d="M72.959 38.372V28.2721H74.409V29.1568C74.8028 28.9358 75.2091 28.7379 75.6258 28.5642C76 28.4093 76.3876 28.289 76.7838 28.2048C77.1933 28.1223 77.6101 28.0814 78.0279 28.0829C78.561 28.065 79.0907 28.1753 79.5725 28.4045C79.9784 28.609 80.3109 28.9342 80.5245 29.3354C80.7574 29.7997 80.8708 30.3147 80.8544 30.8338V38.372H79.2531V31.2857C79.2531 30.6846 79.1017 30.2223 78.8012 29.9029C78.5007 29.5834 78.0342 29.4216 77.4058 29.4216C77.0766 29.4202 76.7482 29.4548 76.4265 29.5246C76.1065 29.5955 75.7941 29.6968 75.4934 29.8272C75.1845 29.9575 74.8735 30.1067 74.5603 30.2685V38.372H72.959Z" fill="#C5282C"/>
<path d="M87.0921 38.5613C86.4648 38.5714 85.8403 38.4755 85.2449 38.2776C84.723 38.1009 84.2535 37.7968 83.8789 37.3929C83.4842 36.9456 83.1917 36.4178 83.0215 35.8462C82.8055 35.1124 82.7042 34.3496 82.7209 33.5849C82.7004 32.707 82.824 31.8317 83.0866 30.9937C83.2881 30.3601 83.626 29.7784 84.0764 29.2894C84.4838 28.866 84.989 28.5492 85.5475 28.3668C86.1343 28.1752 86.7481 28.0794 87.3653 28.0831C88.6599 28.0831 89.6209 28.4257 90.2486 29.1108C90.8763 29.7959 91.1908 30.9041 91.1922 32.4354C91.1922 32.511 91.1922 32.6224 91.1817 32.7653C91.1712 32.9082 91.1817 33.0385 91.1817 33.152C90.9169 33.1772 90.5512 33.2066 90.1057 33.2361L88.5422 33.3495C87.9523 33.393 87.3058 33.4245 86.6025 33.4441C85.8991 33.4637 85.158 33.4798 84.379 33.4924C84.3662 33.5575 84.3599 33.6237 84.3601 33.69V33.8875C84.3329 34.5614 84.4519 35.2332 84.709 35.8567C84.9113 36.3217 85.2665 36.7035 85.7156 36.9389C86.227 37.1817 86.7891 37.2984 87.3548 37.2794C87.7616 37.2791 88.1679 37.2539 88.5716 37.2037C88.9793 37.1533 89.3807 37.0938 89.7758 37.0251C90.173 36.9558 90.5281 36.8822 90.8412 36.815L91.0514 38.0023C90.6775 38.1233 90.2963 38.2209 89.9103 38.2944C89.49 38.3757 89.0444 38.4415 88.5737 38.492C88.0813 38.5404 87.5868 38.5635 87.0921 38.5613ZM84.398 32.4186C85.0018 32.4186 85.5825 32.406 86.1401 32.3807L87.6763 32.3135C88.1401 32.2953 88.5387 32.2736 88.8721 32.2483C89.2041 32.2231 89.4479 32.1979 89.5971 32.1727C89.6028 31.6016 89.514 31.0336 89.3344 30.4915C89.2012 30.0964 88.9305 29.7623 88.5716 29.55C88.1732 29.3427 87.728 29.2421 87.2791 29.2579C86.9539 29.2584 86.6305 29.3058 86.3188 29.3987C85.9977 29.4973 85.7021 29.6652 85.4529 29.8904C85.1605 30.1606 84.926 30.4874 84.7636 30.8508C84.5482 31.3471 84.4243 31.8782 84.398 32.4186Z" fill="#C5282C"/>
<path d="M96.3808 38.5616C95.8507 38.5781 95.3253 38.458 94.8551 38.2128C94.4363 37.974 94.1133 37.5975 93.9409 37.1473C93.7311 36.5875 93.6319 35.9922 93.6488 35.3946V29.4599H91.915V28.4239L93.6488 28.2725L93.859 25.8789H95.2333V28.2725H98.6063V29.4368H95.2312V35.2769C95.2312 35.9557 95.3615 36.4496 95.6179 36.748C95.8743 37.0464 96.2988 37.2103 96.8788 37.2103C97.1798 37.2105 97.4799 37.1788 97.7741 37.1158C98.0828 37.0494 98.3879 36.9673 98.6883 36.8699L98.9152 38.0951C98.4811 38.2536 98.0328 38.3704 97.5766 38.4439C97.1816 38.5138 96.7818 38.5532 96.3808 38.5616Z" fill="#C5282C"/>
<path d="M99.51 35.9509C99.4898 35.4247 99.6234 34.904 99.8945 34.4525C100.179 34.036 100.578 33.7117 101.044 33.5194C101.651 33.2663 102.286 33.0864 102.935 32.9835C103.688 32.8518 104.561 32.7419 105.554 32.6536V31.2414C105.569 30.9913 105.526 30.7412 105.428 30.5107C105.33 30.2802 105.179 30.0756 104.989 29.9132C104.613 29.6036 104.048 29.4495 103.293 29.4509C103.041 29.4509 102.755 29.4635 102.435 29.4887C102.107 29.5149 101.78 29.5591 101.456 29.6211C101.123 29.6827 100.772 29.764 100.405 29.8649L100.124 28.6039C100.667 28.441 101.221 28.3153 101.782 28.2278C102.305 28.143 102.834 28.0987 103.364 28.0954C104.081 28.0733 104.795 28.1918 105.466 28.4442C105.989 28.6489 106.431 29.0176 106.727 29.495C107.025 30.0228 107.17 30.6231 107.147 31.2288V36.1085C107.147 36.5288 107.206 36.8251 107.326 36.9743C107.382 37.0477 107.455 37.1065 107.539 37.146C107.622 37.1855 107.714 37.2044 107.807 37.2013C107.889 37.1999 107.97 37.1908 108.051 37.174C108.141 37.1539 108.23 37.125 108.315 37.0878L108.504 38.2563C108.316 38.3568 108.116 38.4357 107.91 38.4916C107.698 38.5493 107.48 38.5783 107.26 38.5778C106.87 38.5991 106.486 38.4706 106.187 38.2184C105.898 37.9302 105.718 37.5506 105.678 37.1445C105.363 37.4056 105.029 37.6417 104.678 37.8507C104.301 38.0776 103.896 38.2549 103.473 38.3781C103.008 38.5143 102.525 38.5816 102.04 38.5778C101.683 38.5837 101.327 38.5261 100.989 38.4076C100.689 38.2978 100.416 38.1243 100.189 37.899C99.9599 37.6658 99.7837 37.3863 99.6718 37.0794C99.5507 36.7159 99.4959 36.3337 99.51 35.9509ZM101.111 35.8185C101.111 36.3607 101.244 36.7642 101.506 37.0353C101.651 37.1738 101.823 37.2812 102.011 37.3509C102.199 37.4207 102.399 37.4513 102.599 37.4409C102.956 37.4392 103.31 37.3846 103.65 37.279C104.01 37.1707 104.355 37.019 104.678 36.8272C105 36.6402 105.295 36.4089 105.554 36.14V33.5846C104.901 33.6476 104.298 33.7233 103.745 33.8115C103.258 33.8819 102.781 34.0052 102.322 34.1793C101.97 34.3053 101.658 34.523 101.418 34.8098C101.204 35.0975 101.096 35.4499 101.111 35.808V35.8185Z" fill="#C5282C"/>
<path d="M46.5346 45.4249C46.5306 45.1748 46.556 44.9251 46.6103 44.6809C46.6505 44.4939 46.7316 44.3181 46.8478 44.1661C46.9623 44.0277 47.1118 43.9225 47.2807 43.8613C47.4958 43.7887 47.722 43.7545 47.9489 43.7605C48.1752 43.7543 48.4008 43.7885 48.6151 43.8613C48.785 43.923 48.9357 44.028 49.0523 44.1661C49.1698 44.3175 49.2517 44.4935 49.2918 44.6809C49.3461 44.9251 49.3715 45.1748 49.3675 45.4249C49.3718 45.6795 49.3443 45.9337 49.2855 46.1814C49.2422 46.3707 49.1575 46.5479 49.0375 46.7005C48.9213 46.8389 48.7705 46.944 48.6004 47.0052C48.1775 47.137 47.7246 47.137 47.3017 47.0052C47.1319 46.9446 46.9816 46.8393 46.8667 46.7005C46.746 46.5481 46.6606 46.3708 46.6166 46.1814C46.5578 45.9337 46.5303 45.6795 46.5346 45.4249ZM47.0516 45.4249C47.0435 45.6811 47.0754 45.9371 47.1462 46.1835C47.1912 46.3497 47.295 46.4938 47.4383 46.5891C47.5935 46.6775 47.7705 46.7205 47.9489 46.7131C48.1295 46.7207 48.3085 46.6777 48.4659 46.5891C48.6087 46.4932 48.7123 46.3493 48.758 46.1835C48.8269 45.9368 48.8581 45.681 48.8505 45.4249C48.858 45.1725 48.8282 44.9204 48.7622 44.6767C48.7228 44.5137 48.6258 44.3704 48.489 44.2732C48.325 44.1947 48.1455 44.154 47.9637 44.154C47.7818 44.154 47.6023 44.1947 47.4383 44.2732C47.2972 44.3681 47.1961 44.5118 47.1546 44.6767C47.086 44.9202 47.0513 45.1719 47.0516 45.4249Z" fill="#007377"/>
<path d="M50.2107 43.1699C50.1279 43.1774 50.0449 43.1567 49.9753 43.111C49.9488 43.0833 49.9287 43.0502 49.9163 43.0139C49.904 42.9776 49.8997 42.939 49.9039 42.9009C49.9003 42.8629 49.9046 42.8247 49.9165 42.7885C49.9285 42.7523 49.9478 42.719 49.9732 42.6907C50.0464 42.6508 50.1284 42.6299 50.2118 42.6299C50.2951 42.6299 50.3771 42.6508 50.4503 42.6907C50.475 42.7195 50.4936 42.7529 50.5052 42.789C50.5167 42.8251 50.5209 42.8631 50.5175 42.9009C50.5213 42.9386 50.5173 42.9768 50.5057 43.0129C50.4941 43.0491 50.4753 43.0825 50.4503 43.111C50.3797 43.158 50.295 43.1788 50.2107 43.1699ZM49.9606 47.043V43.8192H50.4671V47.043H49.9606Z" fill="#007377"/>
<path d="M51.7129 42.5938V46.1537C51.7085 46.2627 51.7234 46.3716 51.757 46.4753C51.7795 46.5388 51.8253 46.5915 51.8852 46.6224C51.9409 46.6465 52.0011 46.6586 52.0618 46.6581C52.1069 46.6576 52.1519 46.6534 52.1963 46.6455C52.2522 46.6365 52.3076 46.6246 52.3623 46.6098L52.4169 47.0007C52.3434 47.0337 52.2666 47.059 52.1879 47.0763C52.1028 47.0939 52.0162 47.1031 51.9294 47.1036C51.7977 47.1064 51.667 47.0799 51.5469 47.0259C51.434 46.9657 51.3461 46.8674 51.2989 46.7485C51.2304 46.5704 51.1996 46.3801 51.2085 46.1895V42.5938H51.7129Z" fill="#007377"/>
<path d="M54.2076 46.2676C54.2013 46.0998 54.2444 45.9339 54.3316 45.7905C54.4212 45.6561 54.5495 45.5521 54.6994 45.4921C54.8929 45.4108 55.0954 45.353 55.3025 45.3198C55.5442 45.2777 55.8216 45.2441 56.1432 45.2147V44.765C56.1471 44.6858 56.1329 44.6067 56.1016 44.5338C56.0703 44.461 56.0227 44.3963 55.9624 44.3447C55.8045 44.2354 55.6139 44.1835 55.4223 44.1976C55.3404 44.1976 55.25 44.1976 55.147 44.2102C55.0425 44.2172 54.9386 44.2313 54.836 44.2522C54.7288 44.2711 54.6259 44.2984 54.5019 44.33L54.4115 43.9265C54.5849 43.8737 54.7619 43.8337 54.9411 43.8067C55.1079 43.7801 55.2765 43.7661 55.4455 43.7646C55.6741 43.757 55.902 43.7948 56.1158 43.876C56.2833 43.9403 56.425 44.0576 56.5193 44.2102C56.6141 44.3785 56.6607 44.5698 56.6538 44.7629V46.3201C56.6442 46.4162 56.664 46.5129 56.7106 46.5975C56.7289 46.6204 56.7523 46.6387 56.7789 46.6511C56.8055 46.6635 56.8346 46.6696 56.864 46.669C56.8906 46.6708 56.9173 46.6708 56.9438 46.669C56.9724 46.6615 57.0004 46.6523 57.0279 46.6416L57.0867 47.0136C57.0266 47.0456 56.9632 47.071 56.8976 47.0893C56.829 47.1072 56.7584 47.1164 56.6875 47.1166C56.5627 47.1234 56.4401 47.082 56.3449 47.001C56.2524 46.9093 56.1952 46.7881 56.1831 46.6585C56.0823 46.7418 55.9755 46.8176 55.8637 46.8854C55.743 46.9573 55.6138 47.0138 55.4791 47.0535C55.3309 47.0966 55.1773 47.1179 55.023 47.1166C54.9093 47.118 54.7963 47.0995 54.6889 47.0619C54.5928 47.0271 54.5053 46.9719 54.4325 46.9001C54.3598 46.8252 54.3039 46.7357 54.2686 46.6374C54.2244 46.5193 54.2037 46.3936 54.2076 46.2676ZM54.7204 46.2255C54.7097 46.3667 54.755 46.5064 54.8465 46.6143C54.8926 46.6587 54.9474 46.6929 55.0075 46.715C55.0675 46.7371 55.1315 46.7464 55.1954 46.7425C55.3093 46.7422 55.4226 46.7252 55.5316 46.6921C55.6463 46.657 55.7564 46.6083 55.8595 46.5471C55.9619 46.4903 56.056 46.4196 56.139 46.3369V45.5236C55.9288 45.5446 55.7376 45.5678 55.561 45.5972C55.4061 45.6196 55.2539 45.6584 55.1071 45.7128C54.9939 45.7555 54.8944 45.8281 54.8192 45.9229C54.7539 46.0102 54.7192 46.1166 54.7204 46.2255Z" fill="#007377"/>
<path d="M57.4922 47.043V43.8192H57.9461V44.1029C58.0718 44.0322 58.2017 43.9691 58.3349 43.9138C58.4545 43.8642 58.5782 43.8255 58.7048 43.7982C58.8349 43.7724 58.9672 43.7598 59.0999 43.7604C59.2701 43.7547 59.4393 43.7892 59.5937 43.8612C59.7231 43.9276 59.8294 44.0316 59.8984 44.1597C59.9724 44.3083 60.0084 44.4729 60.0035 44.6388V47.043H59.4907V44.7775C59.5009 44.6176 59.4498 44.4598 59.3478 44.3362C59.2883 44.2811 59.2179 44.239 59.1412 44.2126C59.0645 44.1862 58.9832 44.176 58.9023 44.1828C58.797 44.1822 58.692 44.1935 58.5892 44.2164C58.4875 44.238 58.3883 44.2697 58.2929 44.311C58.1941 44.3551 58.0953 44.4013 57.9945 44.4539V47.0388L57.4922 47.043Z" fill="#007377"/>
<path d="M62.7965 47.0496L62.7355 46.7617C62.5713 46.8671 62.3958 46.9538 62.2122 47.0202C62.0456 47.076 61.871 47.1043 61.6953 47.1042C61.5366 47.1091 61.3794 47.0731 61.2387 46.9994C61.0981 46.9258 60.9788 46.8171 60.8925 46.6839C60.68 46.3259 60.5804 45.9121 60.6067 45.4966C60.5956 45.1598 60.6483 44.8239 60.7622 44.5067C60.8539 44.2681 61.0235 44.0674 61.2434 43.9372C61.4937 43.8055 61.7741 43.7417 62.0567 43.7523C62.1639 43.7523 62.2669 43.7523 62.3867 43.767C62.502 43.778 62.6165 43.797 62.7292 43.8237V42.5859H63.2336V47.0412L62.7965 47.0496ZM62.7292 46.3813V44.2167C62.6163 44.1905 62.5019 44.1709 62.3867 44.1579C62.2912 44.1458 62.195 44.1395 62.0988 44.139C61.9089 44.1324 61.7208 44.1774 61.5545 44.2693C61.3992 44.3645 61.2853 44.5145 61.235 44.6896C61.1616 44.942 61.1282 45.2044 61.1363 45.4671C61.1313 45.6929 61.1604 45.9182 61.2224 46.1354C61.2661 46.2919 61.3536 46.4327 61.4746 46.541C61.588 46.6326 61.7303 46.681 61.876 46.6776C61.9666 46.6779 62.0569 46.6673 62.145 46.6461C62.2404 46.6252 62.3328 46.5927 62.4203 46.5494C62.5268 46.5 62.6299 46.4439 62.7292 46.3813Z" fill="#007377"/>
<path d="M66.7718 48.3673C66.4092 48.3906 66.0469 48.3181 65.7211 48.1571C65.6082 48.0916 65.5155 47.9965 65.4529 47.882C65.3903 47.7675 65.3602 47.6381 65.3659 47.5077C65.3641 47.4006 65.3834 47.2942 65.4227 47.1946C65.4635 47.0998 65.5228 47.0141 65.5971 46.9424C65.6853 46.8576 65.7859 46.7868 65.8955 46.7323L66.2212 46.8416C66.1333 46.8782 66.0517 46.9285 65.9796 46.9908C65.923 47.0437 65.8773 47.1073 65.8451 47.1778C65.8131 47.2498 65.7973 47.328 65.7988 47.4069C65.7946 47.5261 65.8342 47.6427 65.9102 47.7347C66.001 47.8304 66.1168 47.8988 66.2444 47.9322C66.4262 47.9829 66.6146 48.0062 66.8034 48.0016C67.0055 48.0092 67.2076 47.985 67.4023 47.9301C67.542 47.8925 67.6699 47.8202 67.7743 47.72C67.8602 47.6294 67.907 47.5086 67.9046 47.3837C67.9086 47.2974 67.885 47.212 67.8373 47.14C67.7876 47.0728 67.7176 47.0234 67.6377 46.9992C67.5237 46.9628 67.4042 46.9464 67.2846 46.9508H66.4608C66.2903 46.9549 66.1203 46.9293 65.9586 46.8752C65.8339 46.8347 65.7246 46.757 65.6454 46.6524C65.5736 46.5474 65.5368 46.4223 65.5404 46.2952C65.537 46.1566 65.5774 46.0206 65.6559 45.9064C65.7444 45.7848 65.8594 45.6849 65.9922 45.6143L66.2801 45.7235C66.1853 45.7709 66.0999 45.8349 66.0279 45.9127C65.967 45.9864 65.9349 46.0798 65.9375 46.1754C65.9363 46.2239 65.9472 46.272 65.9692 46.3153C65.9912 46.3586 66.0237 46.3958 66.0636 46.4233C66.1807 46.4952 66.3175 46.5283 66.4545 46.5179H67.4296C67.6838 46.5013 67.9357 46.5758 68.1399 46.7281C68.2223 46.8049 68.2865 46.899 68.3279 47.0037C68.3694 47.1084 68.387 47.221 68.3795 47.3333C68.3846 47.5387 68.3177 47.7394 68.1904 47.9007C68.0475 48.071 67.8585 48.1966 67.6461 48.2622C67.3625 48.3454 67.0671 48.3809 66.7718 48.3673ZM66.8139 45.8454C66.4846 45.87 66.1574 45.7761 65.8913 45.5806C65.6915 45.3685 65.5803 45.0881 65.5803 44.7968C65.5803 44.5054 65.6915 44.225 65.8913 44.0129C66.1677 43.8426 66.486 43.7524 66.8107 43.7524C67.1354 43.7524 67.4537 43.8426 67.7301 44.0129C67.9299 44.225 68.0412 44.5054 68.0412 44.7968C68.0412 45.0881 67.9299 45.3685 67.7301 45.5806C67.4667 45.7789 67.1408 45.8759 66.8118 45.8538L66.8139 45.8454ZM66.8139 45.4903C67.0134 45.5068 67.212 45.4484 67.3708 45.3263C67.4355 45.2557 67.4846 45.1722 67.515 45.0813C67.5454 44.9905 67.5564 44.8942 67.5473 44.7989C67.5566 44.7019 67.5457 44.604 67.5153 44.5114C67.485 44.4188 67.4357 44.3335 67.3708 44.2609C67.2128 44.1372 67.0138 44.0779 66.8139 44.0949C66.614 44.0789 66.4155 44.1381 66.257 44.2609C66.1901 44.3325 66.1393 44.4175 66.1077 44.5102C66.0762 44.603 66.0648 44.7014 66.0741 44.7989C66.0649 44.8948 66.0765 44.9915 66.108 45.0825C66.1396 45.1736 66.1904 45.2567 66.257 45.3263C66.4145 45.45 66.612 45.5113 66.8118 45.4987L66.8139 45.4903ZM67.7406 44.2693L67.5305 43.9982C67.576 43.8775 67.6612 43.776 67.7722 43.7103C67.8889 43.643 68.0221 43.6096 68.1568 43.6136H68.2807C68.3199 43.6167 68.3586 43.6238 68.3963 43.6346L68.3438 44.0381C68.3144 44.0292 68.2841 44.0236 68.2534 44.0213C68.2191 44.0192 68.1847 44.0192 68.1504 44.0213C68.0667 44.0188 67.9839 44.0391 67.9109 44.0801C67.8338 44.1259 67.7735 44.1952 67.7386 44.2777L67.7406 44.2693Z" fill="#007377"/>
<path d="M68.5739 46.2676C68.5675 46.0998 68.6106 45.9339 68.6978 45.7905C68.7871 45.6567 68.9145 45.5527 69.0635 45.4921C69.2578 45.4111 69.461 45.3533 69.6688 45.3198C69.9083 45.2777 70.1878 45.2441 70.5094 45.2147V44.765C70.5134 44.6858 70.4991 44.6067 70.4678 44.5338C70.4365 44.461 70.3889 44.3963 70.3286 44.3447C70.1701 44.2349 69.9787 44.183 69.7864 44.1976C69.7066 44.1976 69.6162 44.1976 69.5132 44.2102C69.4081 44.2174 69.3035 44.2314 69.2001 44.2522C69.095 44.2711 68.99 44.2984 68.8681 44.33L68.7777 43.9265C68.9504 43.8739 69.1267 43.8339 69.3052 43.8067C69.4727 43.7801 69.642 43.766 69.8117 43.7646C70.0403 43.757 70.2682 43.7948 70.482 43.876C70.6495 43.9403 70.7912 44.0576 70.8855 44.2102C70.9803 44.3785 71.0269 44.5698 71.02 44.7629V46.3201C71.0104 46.4162 71.0302 46.5129 71.0768 46.5975C71.0952 46.6204 71.1185 46.6387 71.1451 46.6511C71.1717 46.6635 71.2008 46.6696 71.2302 46.669C71.2561 46.6709 71.2821 46.6709 71.3079 46.669C71.3366 46.6621 71.3647 46.6529 71.392 46.6416L71.4529 47.0136C71.3925 47.0449 71.3292 47.0702 71.2638 47.0893C71.1952 47.1072 71.1246 47.1164 71.0537 47.1166C70.9288 47.1238 70.806 47.0824 70.7111 47.001C70.6186 46.9093 70.5614 46.7881 70.5493 46.6585C70.4481 46.7413 70.3414 46.8171 70.2299 46.8854C70.1092 46.9573 69.98 47.0138 69.8453 47.0535C69.6972 47.0966 69.5435 47.1179 69.3893 47.1166C69.2755 47.1183 69.1624 47.0998 69.0551 47.0619C68.9587 47.0276 68.8712 46.9724 68.7987 46.9001C68.726 46.8248 68.6695 46.7354 68.6327 46.6374C68.5904 46.5188 68.5705 46.3934 68.5739 46.2676ZM69.0845 46.2255C69.0744 46.367 69.1204 46.5067 69.2127 46.6143C69.2588 46.6587 69.3137 46.6929 69.3737 46.715C69.4337 46.7371 69.4977 46.7464 69.5616 46.7425C69.6755 46.7421 69.7888 46.7251 69.8978 46.6921C70.0125 46.657 70.1226 46.6083 70.2257 46.5471C70.3281 46.4903 70.4222 46.4196 70.5052 46.3369V45.5236C70.295 45.5446 70.1038 45.5678 69.9272 45.5972C69.7723 45.6196 69.6201 45.6584 69.4733 45.7128C69.3601 45.7555 69.2606 45.8281 69.1854 45.9229C69.1194 46.0099 69.0839 46.1163 69.0845 46.2255Z" fill="#007377"/>
<path d="M71.6465 46.9102L71.7263 46.5319C71.7981 46.5622 71.8718 46.5875 71.947 46.6075C72.0311 46.6285 72.1214 46.6475 72.216 46.6643C72.3106 46.6808 72.406 46.692 72.5018 46.6979C72.5964 46.6979 72.6888 46.6979 72.7771 46.6979C72.9747 46.7098 73.1718 46.6668 73.3466 46.5739C73.4391 46.5109 73.5046 46.4156 73.5303 46.3066C73.556 46.1977 73.5399 46.0831 73.4853 45.9855C73.4426 45.92 73.3859 45.8647 73.3193 45.8237C73.2337 45.7715 73.1428 45.7285 73.0482 45.6955C72.941 45.6576 72.8128 45.6198 72.6636 45.5799C72.5348 45.5487 72.409 45.5065 72.2874 45.4538C72.18 45.4058 72.0807 45.3413 71.9932 45.2626C71.9126 45.1913 71.8487 45.103 71.8062 45.0041C71.7621 44.8968 71.7406 44.7816 71.7432 44.6657C71.7366 44.5371 71.7608 44.4089 71.8138 44.2915C71.8668 44.1742 71.9471 44.0712 72.0479 43.9911C72.312 43.8136 72.6278 43.7293 72.9452 43.7516C73.0671 43.7516 73.1806 43.7516 73.2899 43.7684C73.3938 43.7808 73.4969 43.799 73.5988 43.823C73.6976 43.8482 73.7837 43.8734 73.8594 43.9008L73.7879 44.2853L73.5421 44.2202C73.4506 44.1986 73.358 44.1824 73.2647 44.1719C73.1572 44.1596 73.0491 44.154 72.941 44.1551C72.7545 44.1434 72.5688 44.1873 72.4072 44.2811C72.3498 44.3177 72.3029 44.3684 72.2708 44.4284C72.2388 44.4884 72.2228 44.5557 72.2244 44.6237C72.2232 44.6983 72.2444 44.7715 72.2854 44.8338C72.3294 44.8959 72.3878 44.9464 72.4556 44.981C72.5388 45.0245 72.6252 45.0617 72.7141 45.0923C72.8128 45.126 72.9242 45.1596 73.0356 45.1911C73.1781 45.2296 73.3185 45.2759 73.4559 45.3298C73.5686 45.3742 73.6742 45.4351 73.769 45.5105C73.8605 45.5794 73.9329 45.6706 73.9792 45.7753C74.0283 45.8953 74.0519 46.0241 74.0485 46.1536C74.0502 46.2716 74.031 46.389 73.9918 46.5004C73.9551 46.5998 73.8953 46.6891 73.8174 46.7609C73.7373 46.8354 73.6458 46.8964 73.5463 46.9417C73.4364 46.9924 73.3206 47.0291 73.2016 47.051C73.0629 47.0755 72.9222 47.0874 72.7813 47.0867C72.6457 47.0867 72.5103 47.0782 72.3757 47.0615C72.2464 47.0476 72.1181 47.0266 71.9911 46.9984C71.8734 46.9813 71.7579 46.9517 71.6465 46.9102Z" fill="#007377"/>
</g>
<defs>
<linearGradient id="paint0_linear_6011_1851" x1="0.681594" y1="20.6832" x2="41.1675" y2="20.6832" gradientUnits="userSpaceOnUse">
<stop stop-color="#F78D20"/>
<stop offset="1" stop-color="#C5282C"/>
</linearGradient>
<clipPath id="clip0_6011_1851">
<rect width="158.39" height="47.7341" fill="white" transform="translate(0.681641 0.632812)"/>
</clipPath>
</defs>
</svg>
